<svg width="64" height="64" viewBox="0 0 64 64" fill="none" xmlns="http://www.w3.org/2000/svg">
<g clipPath="url(#clip0_28060_15378)">
<path d="M33.9408 2.04506C34.0363 2.10017 34.1317 2.15527 34.2301 2.21205C34.5427 2.39339 34.8537 2.57721 35.1644 2.76175C35.2708 2.82475 35.3772 2.88776 35.4868 2.95267C36.0559 3.29029 36.6239 3.62992 37.1912 3.97067C37.9084 4.40112 38.6286 4.82634 39.3495 5.25047C40.4572 5.90246 41.5638 6.55622 42.6696 7.21151C42.7827 7.27854 42.7827 7.27854 42.8981 7.34691C43.5151 7.71257 44.1321 8.0783 44.7491 8.44404C45.2873 8.76305 45.8255 9.08203 46.3637 9.40096C46.477 9.46809 46.477 9.46809 46.5926 9.53658C47.7245 10.2073 48.8576 10.8761 49.9913 11.5437C51.0506 12.1678 52.1084 12.7945 53.1661 13.4214C54.1893 14.0279 55.2132 14.6332 56.2381 15.2368C56.6043 15.4527 56.9704 15.6685 57.3365 15.8844C57.6187 16.0507 57.9009 16.2169 58.1831 16.383C59.1075 16.9273 60.0305 17.4737 60.9517 18.0235C61.1996 18.1711 61.4478 18.3182 61.6966 18.4643C61.98 18.6308 62.2617 18.7998 62.5431 18.9699C62.6587 19.0366 62.6587 19.0366 62.7767 19.1047C63.4294 19.5068 63.7335 19.9986 63.9372 20.7405C64.0039 22.0801 63.2712 23.0887 62.5976 24.1836C62.5122 24.3286 62.4271 24.4738 62.3424 24.6192C61.8933 25.3692 61.4425 25.9981 60.6025 26.3258C60.3214 26.3549 60.3214 26.3549 60.0336 26.3494C59.9383 26.3486 59.8429 26.3478 59.7447 26.347C59.4802 26.3258 59.4802 26.3258 59.1061 26.1998C59.1061 29.1107 59.1061 32.0215 59.1061 35.0206C59.8057 35.0206 60.5052 35.0206 61.226 35.0206C62.0962 35.4603 62.0962 35.4603 62.3483 35.9026C62.502 36.4228 62.4954 36.9381 62.4983 37.4768C62.499 37.5806 62.4997 37.6844 62.5004 37.7913C62.5016 38.0105 62.5024 38.2298 62.5029 38.449C62.5041 38.7831 62.508 39.1171 62.5119 39.4511C62.5127 39.6646 62.5134 39.8781 62.5139 40.0915C62.5154 40.1908 62.5169 40.29 62.5185 40.3923C62.5161 41.004 62.4429 41.4268 62.0989 41.9512C61.4754 42.4552 61.4754 42.4552 59.1061 42.4552C59.1061 47.5284 59.1061 52.6016 59.1061 57.8286C59.888 57.8286 60.6945 57.8286 61.5 57.8286C62 57.8286 62.3776 57.9769 62.5 58.5C62.525 58.8636 62.5109 59.8032 62.5105 60.1667C62.511 60.27 62.5115 60.3733 62.5121 60.4797C62.5128 60.6977 62.5129 60.9156 62.5123 61.1336C62.5119 61.4652 62.5148 61.7966 62.518 62.1282C62.5183 62.3407 62.5184 62.5532 62.5182 62.7656C62.5171 62.6645 62.5194 62.8639 62.5182 62.7656C62.5 64 61.5 64 61 64C60.5 64 60.8014 64.0019 60 64C59.9016 64.0003 60.1014 63.9997 60 64C59.6682 64.0007 58.8318 64.0002 58.5 64C58.2605 64.0003 58.7395 63.9996 58.5 64C57.8403 64.001 56.6597 63.9999 56 64C55.2891 64.0002 54.2109 63.9991 53.5 64C51.9449 64.0017 50.5551 63.9994 49 64C48.0295 64.0003 49.9705 63.9994 49 64C46.3141 64.0015 40.6859 63.9996 38 64C37.6507 64.0001 38.3493 63.9999 38 64C39.0479 63.9998 39.5703 63.9997 38 64C35.1911 64.0005 40.8089 63.9971 38 64C35.0307 64.0031 21.4693 63.9998 18.5 64C16.8812 64.0001 20.1188 63.9977 18.5 64C17.1218 64.0019 19.8782 64.001 18.5 64C17.7965 63.9995 8.20345 63.9982 7.5 64C6.85627 64.0016 8.14373 64.0015 7.5 64C7.26689 63.9998 8.19934 63.9988 7.5 64C7.18347 64.0014 7.81653 64.0015 7.5 64C7.36381 64.0014 4.02044 63.9985 3.8815 64C3.24684 63.9934 3 64 2.5 64C2 64 1.34414 63.0446 1.34414 62.5043C1.34343 62.4003 1.34488 62.6114 1.34414 62.5043C1.34297 62.2843 1.34215 62.0643 1.34167 61.8443C1.34046 61.5091 1.33659 61.174 1.33266 60.8388C1.33184 60.6248 1.33119 60.4107 1.33071 60.1967C1.32917 60.097 1.32763 59.9974 1.32605 59.8947C1.32847 59.2818 1.40079 58.8579 1.74572 58.3326C2.3692 57.8286 2.3692 57.8286 4.73843 57.8286C4.73843 52.7554 4.73843 47.6822 4.73843 42.4552C3.95659 42.4552 3.17474 42.4552 2.3692 42.4552C1.49406 41.7183 1.49406 41.7183 1.37163 41.1951C1.34658 40.8316 1.3337 40.4806 1.33412 40.1171C1.33359 40.0138 1.33305 39.9105 1.3325 39.8041C1.33179 39.5861 1.33172 39.3682 1.33226 39.1502C1.33266 38.8186 1.32973 38.4872 1.32657 38.1556C1.32629 37.9431 1.3262 37.7306 1.32633 37.5182C1.32518 37.4199 1.32403 37.3217 1.32285 37.2205C1.32816 36.5786 1.41169 36.0885 1.74572 35.5246C2.61859 35.0206 2.61859 35.0206 4.73843 35.0206C4.73843 32.1097 4.73843 29.1989 4.73843 26.1998C4.61498 26.2414 4.49154 26.283 4.36435 26.3258C3.56935 26.3939 3.02514 26.2925 2.3692 25.8218C1.72452 25.1031 1.24532 24.2296 0.763731 23.3961C0.68979 23.275 0.615849 23.154 0.539667 23.0293C0.0335705 22.1491 -0.169249 21.4201 -3.52897e-05 20.4033C0.222465 19.6936 0.704645 19.3131 1.32487 18.9542C1.41041 18.9024 1.49596 18.8506 1.58409 18.7972C1.88587 18.6158 2.18965 18.4382 2.4939 18.2611C2.61146 18.1922 2.72902 18.1233 2.85015 18.0523C3.52352 17.6577 4.19814 17.2654 4.87336 16.874C5.72671 16.3781 6.57357 15.8717 7.41941 15.3629C8.64362 14.627 9.87369 13.9024 11.1086 13.185C12.1316 12.5903 13.1509 11.9895 14.1686 11.3856C14.283 11.3178 14.283 11.3178 14.3996 11.2486C14.5526 11.1578 14.7055 11.0671 14.8585 10.9763C14.9708 10.9097 14.9708 10.9097 15.0853 10.8417C15.1597 10.7976 15.234 10.7535 15.3107 10.708C16.0254 10.284 16.7413 9.86199 17.4575 9.44033C18.56 8.79106 19.6613 8.13962 20.7619 7.48716C21.9823 6.76376 23.2036 6.0419 24.4261 5.32224C25.1123 4.91812 25.7977 4.51276 26.4824 4.10603C27.3805 3.57254 28.2792 3.04033 29.179 2.50973C29.2924 2.44274 29.4059 2.37576 29.5229 2.30674C29.8025 2.14229 30.0828 1.97913 30.3636 1.81667C30.4396 1.77186 30.5156 1.72706 30.594 1.6809C31.8082 0.985749 32.8057 1.37137 33.9408 2.04506ZM31.1512 3.80085C31.0477 3.8637 30.9442 3.92655 30.8376 3.99131C30.7249 4.06117 30.6122 4.13103 30.4961 4.203C30.2479 4.35406 29.9996 4.505 29.7513 4.65585C29.6185 4.73691 29.4857 4.81796 29.3489 4.90148C28.6914 5.30047 28.0296 5.69175 27.3675 6.08296C27.1352 6.22028 26.9029 6.35776 26.6707 6.49529C25.5992 7.1297 24.5267 7.76223 23.4538 8.39416C22.4856 8.96463 21.5183 9.53686 20.5515 10.1098C20.476 10.1545 20.4006 10.1992 20.3228 10.2453C19.7833 10.565 19.2439 10.8847 18.7045 11.2045C16.3829 12.5807 14.0597 13.9541 11.7342 15.3236C10.1007 16.2857 8.46855 17.2501 6.83779 18.217C6.0941 18.6578 5.35005 19.098 4.60497 19.5365C4.46697 19.6177 4.32898 19.6989 4.1868 19.7826C3.92691 19.9355 3.66697 20.0882 3.40696 20.2409C3.29179 20.3086 3.17661 20.3763 3.05795 20.4461C2.95755 20.5051 2.85715 20.564 2.7537 20.6248C2.53845 20.7545 2.32834 20.8929 2.11981 21.0333C2.31832 21.7705 2.68809 22.3823 3.07062 23.0338C3.13491 23.1446 3.19921 23.2553 3.26546 23.3695C3.4233 23.6412 3.58178 23.9126 3.74086 24.1836C4.19157 24.0122 4.59954 23.8082 5.01608 23.5644C5.14298 23.4903 5.26989 23.4163 5.40064 23.3399C5.53703 23.2597 5.67342 23.1795 5.81394 23.0968C5.95852 23.0121 6.10311 22.9274 6.2477 22.8428C7.40746 22.1628 8.56061 21.4716 9.71302 20.779C10.797 20.1284 11.8874 19.4897 12.9804 18.8547C13.9898 18.2678 14.9958 17.6754 16.0001 17.0798C16.0751 17.0353 16.1501 16.9908 16.2274 16.9449C16.6086 16.7188 16.9897 16.4926 17.3708 16.2664C18.1398 15.8099 18.9092 15.354 19.6786 14.8982C19.754 14.8535 19.8293 14.8089 19.907 14.7629C21.537 13.7972 23.1692 12.8352 24.8018 11.8738C25.0446 11.7308 25.2874 11.5877 25.5302 11.4446C25.7744 11.3008 26.0188 11.1573 26.2634 11.0141C26.8919 10.6453 27.5172 10.2723 28.1376 9.88984C28.4617 9.69031 28.7868 9.49252 29.112 9.29484C29.2689 9.19883 29.4253 9.102 29.5811 9.00429C31.4025 7.86318 31.4025 7.86318 32.5522 8.10888C33.2504 8.34268 33.8769 8.75695 34.5019 9.14106C34.7456 9.28865 34.9893 9.43615 35.2331 9.58357C35.4276 9.70159 35.4276 9.70159 35.626 9.822C36.2812 10.2177 36.94 10.6074 37.5988 10.997C37.8313 11.1345 38.0638 11.2722 38.2963 11.4098C39.3672 12.0439 40.4393 12.6762 41.5117 13.3078C42.5711 13.9319 43.629 14.5586 44.6867 15.1856C45.7099 15.7921 46.7338 16.3974 47.7588 17.001C48.9389 17.696 50.1175 18.3936 51.2956 19.0919C52.4375 19.7688 53.5802 20.4442 54.7244 21.1172C55.3444 21.4821 55.9637 21.8484 56.5816 22.217C56.9131 22.4148 57.2448 22.6122 57.5764 22.8097C57.7374 22.9057 57.8983 23.0018 58.0592 23.0981C58.2837 23.2326 58.5086 23.3666 58.7335 23.5004C58.8627 23.5776 58.9919 23.6548 59.125 23.7343C59.4459 23.9125 59.7608 24.0555 60.1037 24.1836C60.3748 23.7063 60.6446 23.2284 60.9142 22.7502C60.9916 22.6141 61.0689 22.478 61.1485 22.3378C61.2217 22.2078 61.2948 22.0779 61.3702 21.944C61.472 21.7638 61.472 21.7638 61.576 21.58C61.7437 21.3031 61.7437 21.3031 61.7248 21.0333C61.4264 20.821 61.4264 20.821 61.0389 20.6022C60.9669 20.5598 60.8948 20.5174 60.8205 20.4738C60.5821 20.3339 60.3429 20.1953 60.1037 20.0568C59.9372 19.9594 59.7708 19.8619 59.6044 19.7644C59.2663 19.5663 58.928 19.3687 58.5893 19.1715C57.9288 18.7867 57.2705 18.3978 56.6122 18.0091C56.3685 17.8655 56.1248 17.7219 55.8811 17.5784C55.0356 17.08 54.1911 16.5799 53.3467 16.0795C53.2712 16.0348 53.1958 15.9901 53.118 15.944C52.501 15.5784 51.8841 15.2127 51.2672 14.847C50.729 14.528 50.1908 14.209 49.6526 13.8901C49.5393 13.823 49.5393 13.823 49.4237 13.7545C48.4122 13.1552 47.4001 12.5572 46.3871 11.9606C45.2977 11.3189 44.2093 10.6755 43.1216 10.031C43.0461 9.98628 42.9706 9.94156 42.8929 9.89547C42.2759 9.52987 41.659 9.16418 41.042 8.79848C40.58 8.5246 40.118 8.25075 39.6559 7.97693C39.5038 7.88682 39.3518 7.7967 39.1997 7.70657C38.4183 7.24346 37.6366 6.78095 36.8536 6.32058C36.7263 6.24566 36.5989 6.17075 36.4677 6.09357C36.2207 5.94838 35.9736 5.80331 35.7265 5.65837C35.1282 5.30654 34.5334 4.95012 33.9432 4.58448C33.8285 4.51363 33.7137 4.44277 33.5955 4.36977C33.3797 4.23604 33.1644 4.10136 32.9498 3.96559C32.8067 3.87698 32.8067 3.87698 32.6607 3.78657C32.5779 3.73445 32.4951 3.68233 32.4097 3.62863C31.9131 3.39747 31.5828 3.53508 31.1512 3.80085ZM31.0747 10.5203C30.9568 10.5908 30.8389 10.6612 30.7174 10.7338C30.5903 10.8112 30.4633 10.8885 30.3324 10.9682C30.0595 11.1318 29.7866 11.2954 29.5136 11.459C29.3048 11.5848 29.3048 11.5848 29.0917 11.7133C28.4712 12.0861 27.8469 12.4524 27.2228 12.819C26.0297 13.5218 24.8383 14.2274 23.6471 14.9335C22.5034 15.6114 21.3586 16.2874 20.213 16.9621C19.2312 17.5405 18.2507 18.1211 17.2704 18.7021C16.1698 19.3546 15.0685 20.006 13.966 20.6553C10.2094 22.5455 10.2094 22.5455 6.85828 24.9397C6.85828 28.2664 6.85828 31.5931 6.85828 35.0206C23.4005 35.0206 39.9428 35.0206 56.9863 35.0206C56.9863 31.6939 56.9863 28.3672 56.9863 24.9397C56.0789 24.3254 56.0789 24.3254 55.1504 23.7583C55.0232 23.6846 54.896 23.6109 54.765 23.5349C54.6313 23.4579 54.4976 23.3809 54.3599 23.3015C54.1431 23.1759 53.9264 23.0503 53.7097 22.9246C53.5623 22.8391 53.415 22.7536 53.2675 22.6682C52.5594 22.2578 51.8538 21.8431 51.1489 21.4271C51.0282 21.3559 50.9075 21.2847 50.7831 21.2113C49.6403 20.5366 48.4987 19.8598 47.357 19.1831C46.411 18.6224 45.4642 18.0631 44.5166 17.505C43.4272 16.8634 42.3389 16.22 41.2511 15.5755C41.1757 15.5308 41.1002 15.486 41.0224 15.44C40.4054 15.0744 39.7885 14.7087 39.1716 14.343C38.6334 14.024 38.0952 13.705 37.557 13.3861C37.4825 13.3419 37.4079 13.2977 37.3311 13.2522C36.1318 12.5416 34.9314 11.8329 33.73 11.1259C33.6157 11.0586 33.5014 10.9913 33.3836 10.9219C33.2349 10.8345 33.2349 10.8345 33.0833 10.7453C32.8781 10.6236 32.6766 10.4957 32.4778 10.3637C31.9196 10.0586 31.5791 10.2155 31.0747 10.5203ZM3.49147 37.1628C3.49147 38.2024 3.49147 39.2419 3.49147 40.313C22.2558 40.313 41.0201 40.313 60.3531 40.313C60.3531 39.2734 60.3531 38.2339 60.3531 37.1628C41.5888 37.1628 22.8244 37.1628 3.49147 37.1628ZM6.85828 42.4552C6.85828 47.5284 6.85828 52.6016 6.85828 57.8286C9.20382 57.8286 11.5494 57.8286 13.966 57.8286C13.966 52.7554 13.966 47.6822 13.966 42.4552C11.6204 42.4552 9.2749 42.4552 6.85828 42.4552ZM16.0858 42.4552C16.0858 47.5284 16.0858 52.6016 16.0858 57.8286C19.419 57.8286 22.7521 57.8286 26.1862 57.8286C26.1862 52.7554 26.1862 47.6822 26.1862 42.4552C22.8531 42.4552 19.52 42.4552 16.0858 42.4552ZM28.3061 42.4552C28.3061 47.5284 28.3061 52.6016 28.3061 57.8286C30.6928 57.8286 33.0795 57.8286 35.5385 57.8286C35.5385 52.7554 35.5385 47.6822 35.5385 42.4552C33.1518 42.4552 30.7651 42.4552 28.3061 42.4552ZM37.6583 42.4552C37.6583 47.5284 37.6583 52.6016 37.6583 57.8286C40.9915 57.8286 44.3246 57.8286 47.7588 57.8286C47.7588 52.7554 47.7588 47.6822 47.7588 42.4552C44.4256 42.4552 41.0925 42.4552 37.6583 42.4552ZM49.8786 42.4552C49.8786 47.5284 49.8786 52.6016 49.8786 57.8286C52.2241 57.8286 54.5697 57.8286 56.9863 57.8286C56.9863 52.7554 56.9863 47.6822 56.9863 42.4552C54.6408 42.4552 52.2952 42.4552 49.8786 42.4552ZM3.49147 59.9708C3.49147 61.0103 3.5 60.9289 3.5 62C22.2643 62 41.0201 62.1282 60.3531 62.1282C60.3531 61.0886 60.3531 61.0419 60.3531 59.9708C41.5888 59.9708 22.8244 59.9708 3.49147 59.9708Z" fill="#0F0404"/>
<path d="M33.9408 2.04506C34.0363 2.10017 34.1317 2.15527 34.2301 2.21205C34.5427 2.39339 34.8537 2.57721 35.1644 2.76175C35.2708 2.82475 35.3772 2.88776 35.4868 2.95267C36.0559 3.29029 36.6239 3.62992 37.1912 3.97067C37.9084 4.40112 38.6286 4.82634 39.3495 5.25047C40.4572 5.90246 41.5638 6.55622 42.6696 7.21151C42.7827 7.27854 42.7827 7.27854 42.8981 7.34691C43.5151 7.71257 44.1321 8.0783 44.7491 8.44404C45.2873 8.76305 45.8255 9.08203 46.3637 9.40096C46.477 9.46809 46.477 9.46809 46.5926 9.53658C47.7245 10.2073 48.8576 10.8761 49.9913 11.5437C51.0506 12.1678 52.1084 12.7945 53.1661 13.4214C54.1893 14.0279 55.2132 14.6332 56.2381 15.2368C56.6043 15.4527 56.9704 15.6685 57.3365 15.8844C57.6187 16.0507 57.9009 16.2169 58.1831 16.383C59.1075 16.9273 60.0305 17.4737 60.9517 18.0235C61.1996 18.1711 61.4478 18.3182 61.6966 18.4643C61.98 18.6308 62.2617 18.7998 62.5431 18.9699C62.6587 19.0366 62.6587 19.0366 62.7767 19.1047C63.4294 19.5068 63.7335 19.9986 63.9372 20.7405C64.0039 22.0801 63.2712 23.0887 62.5976 24.1836C62.5122 24.3286 62.4271 24.4738 62.3424 24.6192C61.8933 25.3692 61.4425 25.9981 60.6025 26.3258C60.3214 26.3549 60.3214 26.3549 60.0336 26.3494C59.9383 26.3486 59.8429 26.3478 59.7447 26.347C59.4802 26.3258 59.4802 26.3258 59.1061 26.1998C59.1061 29.1107 59.1061 32.0215 59.1061 35.0206C59.8057 35.0206 60.5052 35.0206 61.226 35.0206C62.0962 35.4603 62.0962 35.4603 62.3483 35.9026C62.502 36.4228 62.4954 36.9381 62.4983 37.4768C62.499 37.5806 62.4997 37.6844 62.5004 37.7913C62.5016 38.0105 62.5024 38.2298 62.5029 38.449C62.5041 38.7831 62.508 39.1171 62.5119 39.4511C62.5127 39.6646 62.5134 39.8781 62.5139 40.0915C62.5154 40.1908 62.5169 40.29 62.5185 40.3923C62.5161 41.004 62.4429 41.4268 62.0989 41.9512C61.4754 42.4552 61.4754 42.4552 59.1061 42.4552C59.1061 47.5284 59.1061 52.6016 59.1061 57.8286C59.888 57.8286 60.6945 57.8286 61.5 57.8286C62 57.8286 62.3776 57.9769 62.5 58.5C62.525 58.8636 62.5109 59.8032 62.5105 60.1667C62.511 60.27 62.5115 60.3733 62.5121 60.4797C62.5128 60.6977 62.5129 60.9156 62.5123 61.1336C62.5119 61.4652 62.5148 61.7966 62.518 62.1282C62.5183 62.3407 62.5184 62.5532 62.5182 62.7656C62.5171 62.6645 62.5194 62.8639 62.5182 62.7656C62.5 64 61.5 64 61 64C60.5 64 60.8014 64.0019 60 64C59.9016 64.0003 60.1014 63.9997 60 64C59.6682 64.0007 58.8318 64.0002 58.5 64C58.2605 64.0003 58.7395 63.9996 58.5 64C57.8403 64.001 56.6597 63.9999 56 64C55.2891 64.0002 54.2109 63.9991 53.5 64C51.9449 64.0017 50.5551 63.9994 49 64C48.0295 64.0003 49.9705 63.9994 49 64C46.3141 64.0015 40.6859 63.9996 38 64C37.6507 64.0001 38.3493 63.9999 38 64C39.0479 63.9998 39.5703 63.9997 38 64C35.1911 64.0005 40.8089 63.9971 38 64C35.0307 64.0031 21.4693 63.9998 18.5 64C16.8812 64.0001 20.1188 63.9977 18.5 64C17.1218 64.0019 19.8782 64.001 18.5 64C17.7965 63.9995 8.20345 63.9982 7.5 64C6.85627 64.0016 8.14373 64.0015 7.5 64C7.26689 63.9998 8.19934 63.9988 7.5 64C7.18347 64.0014 7.81653 64.0015 7.5 64C7.36381 64.0014 4.02044 63.9985 3.8815 64C3.24684 63.9934 3 64 2.5 64C2 64 1.34414 63.0446 1.34414 62.5043C1.34343 62.4003 1.34488 62.6114 1.34414 62.5043C1.34297 62.2843 1.34215 62.0643 1.34167 61.8443C1.34046 61.5091 1.33659 61.174 1.33266 60.8388C1.33184 60.6248 1.33119 60.4107 1.33071 60.1967C1.32917 60.097 1.32763 59.9974 1.32605 59.8947C1.32847 59.2818 1.40079 58.8579 1.74572 58.3326C2.3692 57.8286 2.3692 57.8286 4.73843 57.8286C4.73843 52.7554 4.73843 47.6822 4.73843 42.4552C3.95659 42.4552 3.17474 42.4552 2.3692 42.4552C1.49406 41.7183 1.49406 41.7183 1.37163 41.1951C1.34658 40.8316 1.3337 40.4806 1.33412 40.1171C1.33359 40.0138 1.33305 39.9105 1.3325 39.8041C1.33179 39.5861 1.33172 39.3682 1.33226 39.1502C1.33266 38.8186 1.32973 38.4872 1.32657 38.1556C1.32629 37.9431 1.3262 37.7306 1.32633 37.5182C1.32518 37.4199 1.32403 37.3217 1.32285 37.2205C1.32816 36.5786 1.41169 36.0885 1.74572 35.5246C2.61859 35.0206 2.61859 35.0206 4.73843 35.0206C4.73843 32.1097 4.73843 29.1989 4.73843 26.1998C4.61498 26.2414 4.49154 26.283 4.36435 26.3258C3.56935 26.3939 3.02514 26.2925 2.3692 25.8218C1.72452 25.1031 1.24532 24.2296 0.763731 23.3961C0.68979 23.275 0.615849 23.154 0.539667 23.0293C0.0335705 22.1491 -0.169249 21.4201 -3.52897e-05 20.4033C0.222465 19.6936 0.704645 19.3131 1.32487 18.9542C1.41041 18.9024 1.49596 18.8506 1.58409 18.7972C1.88587 18.6158 2.18965 18.4382 2.4939 18.2611C2.61146 18.1922 2.72902 18.1233 2.85015 18.0523C3.52352 17.6577 4.19814 17.2654 4.87336 16.874C5.72671 16.3781 6.57357 15.8717 7.41941 15.3629C8.64362 14.627 9.87369 13.9024 11.1086 13.185C12.1316 12.5903 13.1509 11.9895 14.1686 11.3856C14.283 11.3178 14.283 11.3178 14.3996 11.2486C14.5526 11.1578 14.7055 11.0671 14.8585 10.9763C14.9708 10.9097 14.9708 10.9097 15.0853 10.8417C15.1597 10.7976 15.234 10.7535 15.3107 10.708C16.0254 10.284 16.7413 9.86199 17.4575 9.44033C18.56 8.79106 19.6613 8.13962 20.7619 7.48716C21.9823 6.76376 23.2036 6.0419 24.4261 5.32224C25.1123 4.91812 25.7977 4.51276 26.4824 4.10603C27.3805 3.57254 28.2792 3.04033 29.179 2.50973C29.2924 2.44274 29.4059 2.37576 29.5229 2.30674C29.8025 2.14229 30.0828 1.97913 30.3636 1.81667C30.4396 1.77186 30.5156 1.72706 30.594 1.6809C31.8082 0.985749 32.8057 1.37137 33.9408 2.04506ZM31.1512 3.80085C31.0477 3.8637 30.9442 3.92655 30.8376 3.99131C30.7249 4.06117 30.6122 4.13103 30.4961 4.203C30.2479 4.35406 29.9996 4.505 29.7513 4.65585C29.6185 4.73691 29.4857 4.81796 29.3489 4.90148C28.6914 5.30047 28.0296 5.69175 27.3675 6.08296C27.1352 6.22028 26.9029 6.35776 26.6707 6.49529C25.5992 7.1297 24.5267 7.76223 23.4538 8.39416C22.4856 8.96463 21.5183 9.53686 20.5515 10.1098C20.476 10.1545 20.4006 10.1992 20.3228 10.2453C19.7833 10.565 19.2439 10.8847 18.7045 11.2045C16.3829 12.5807 14.0597 13.9541 11.7342 15.3236C10.1007 16.2857 8.46855 17.2501 6.83779 18.217C6.0941 18.6578 5.35005 19.098 4.60497 19.5365C4.46697 19.6177 4.32898 19.6989 4.1868 19.7826C3.92691 19.9355 3.66697 20.0882 3.40696 20.2409C3.29179 20.3086 3.17661 20.3763 3.05795 20.4461C2.95755 20.5051 2.85715 20.564 2.7537 20.6248C2.53845 20.7545 2.32834 20.8929 2.11981 21.0333C2.31832 21.7705 2.68809 22.3823 3.07062 23.0338C3.13491 23.1446 3.19921 23.2553 3.26546 23.3695C3.4233 23.6412 3.58178 23.9126 3.74086 24.1836C4.19157 24.0122 4.59954 23.8082 5.01608 23.5644C5.14298 23.4903 5.26989 23.4163 5.40064 23.3399C5.53703 23.2597 5.67342 23.1795 5.81394 23.0968C5.95852 23.0121 6.10311 22.9274 6.2477 22.8428C7.40746 22.1628 8.56061 21.4716 9.71302 20.779C10.797 20.1284 11.8874 19.4897 12.9804 18.8547C13.9898 18.2678 14.9958 17.6754 16.0001 17.0798C16.0751 17.0353 16.1501 16.9908 16.2274 16.9449C16.6086 16.7188 16.9897 16.4926 17.3708 16.2664C18.1398 15.8099 18.9092 15.354 19.6786 14.8982C19.754 14.8535 19.8293 14.8089 19.907 14.7629C21.537 13.7972 23.1692 12.8352 24.8018 11.8738C25.0446 11.7308 25.2874 11.5877 25.5302 11.4446C25.7744 11.3008 26.0188 11.1573 26.2634 11.0141C26.8919 10.6453 27.5172 10.2723 28.1376 9.88984C28.4617 9.69031 28.7868 9.49252 29.112 9.29484C29.2689 9.19883 29.4253 9.102 29.5811 9.00429C31.4025 7.86318 31.4025 7.86318 32.5522 8.10888C33.2504 8.34268 33.8769 8.75695 34.5019 9.14106C34.7456 9.28865 34.9893 9.43615 35.2331 9.58357C35.4276 9.70159 35.4276 9.70159 35.626 9.822C36.2812 10.2177 36.94 10.6074 37.5988 10.997C37.8313 11.1345 38.0638 11.2722 38.2963 11.4098C39.3672 12.0439 40.4393 12.6762 41.5117 13.3078C42.5711 13.9319 43.629 14.5586 44.6867 15.1856C45.7099 15.7921 46.7338 16.3974 47.7588 17.001C48.9389 17.696 50.1175 18.3936 51.2956 19.0919C52.4375 19.7688 53.5802 20.4442 54.7244 21.1172C55.3444 21.4821 55.9637 21.8484 56.5816 22.217C56.9131 22.4148 57.2448 22.6122 57.5764 22.8097C57.7374 22.9057 57.8983 23.0018 58.0592 23.0981C58.2837 23.2326 58.5086 23.3666 58.7335 23.5004C58.8627 23.5776 58.9919 23.6548 59.125 23.7343C59.4459 23.9125 59.7608 24.0555 60.1037 24.1836C60.3748 23.7063 60.6446 23.2284 60.9142 22.7502C60.9916 22.6141 61.0689 22.478 61.1485 22.3378C61.2217 22.2078 61.2948 22.0779 61.3702 21.944C61.472 21.7638 61.472 21.7638 61.576 21.58C61.7437 21.3031 61.7437 21.3031 61.7248 21.0333C61.4264 20.821 61.4264 20.821 61.0389 20.6022C60.9669 20.5598 60.8948 20.5174 60.8205 20.4738C60.5821 20.3339 60.3429 20.1953 60.1037 20.0568C59.9372 19.9594 59.7708 19.8619 59.6044 19.7644C59.2663 19.5663 58.928 19.3687 58.5893 19.1715C57.9288 18.7867 57.2705 18.3978 56.6122 18.0091C56.3685 17.8655 56.1248 17.7219 55.8811 17.5784C55.0356 17.08 54.1911 16.5799 53.3467 16.0795C53.2712 16.0348 53.1958 15.9901 53.118 15.944C52.501 15.5784 51.8841 15.2127 51.2672 14.847C50.729 14.528 50.1908 14.209 49.6526 13.8901C49.5393 13.823 49.5393 13.823 49.4237 13.7545C48.4122 13.1552 47.4001 12.5572 46.3871 11.9606C45.2977 11.3189 44.2093 10.6755 43.1216 10.031C43.0461 9.98628 42.9706 9.94156 42.8929 9.89547C42.2759 9.52987 41.659 9.16418 41.042 8.79848C40.58 8.5246 40.118 8.25075 39.6559 7.97693C39.5038 7.88682 39.3518 7.7967 39.1997 7.70657C38.4183 7.24346 37.6366 6.78095 36.8536 6.32058C36.7263 6.24566 36.5989 6.17075 36.4677 6.09357C36.2207 5.94838 35.9736 5.80331 35.7265 5.65837C35.1282 5.30654 34.5334 4.95012 33.9432 4.58448C33.8285 4.51363 33.7137 4.44277 33.5955 4.36977C33.3797 4.23604 33.1644 4.10136 32.9498 3.96559C32.8067 3.87698 32.8067 3.87698 32.6607 3.78657C32.5779 3.73445 32.4951 3.68233 32.4097 3.62863C31.9131 3.39747 31.5828 3.53508 31.1512 3.80085ZM31.0747 10.5203C30.9568 10.5908 30.8389 10.6612 30.7174 10.7338C30.5903 10.8112 30.4633 10.8885 30.3324 10.9682C30.0595 11.1318 29.7866 11.2954 29.5136 11.459C29.3048 11.5848 29.3048 11.5848 29.0917 11.7133C28.4712 12.0861 27.8469 12.4524 27.2228 12.819C26.0297 13.5218 24.8383 14.2274 23.6471 14.9335C22.5034 15.6114 21.3586 16.2874 20.213 16.9621C19.2312 17.5405 18.2507 18.1211 17.2704 18.7021C16.1698 19.3546 15.0685 20.006 13.966 20.6553C10.2094 22.5455 10.2094 22.5455 6.85828 24.9397C6.85828 28.2664 6.85828 31.5931 6.85828 35.0206C23.4005 35.0206 39.9428 35.0206 56.9863 35.0206C56.9863 31.6939 56.9863 28.3672 56.9863 24.9397C56.0789 24.3254 56.0789 24.3254 55.1504 23.7583C55.0232 23.6846 54.896 23.6109 54.765 23.5349C54.6313 23.4579 54.4976 23.3809 54.3599 23.3015C54.1431 23.1759 53.9264 23.0503 53.7097 22.9246C53.5623 22.8391 53.415 22.7536 53.2675 22.6682C52.5594 22.2578 51.8538 21.8431 51.1489 21.4271C51.0282 21.3559 50.9075 21.2847 50.7831 21.2113C49.6403 20.5366 48.4987 19.8598 47.357 19.1831C46.411 18.6224 45.4642 18.0631 44.5166 17.505C43.4272 16.8634 42.3389 16.22 41.2511 15.5755C41.1757 15.5308 41.1002 15.486 41.0224 15.44C40.4054 15.0744 39.7885 14.7087 39.1716 14.343C38.6334 14.024 38.0952 13.705 37.557 13.3861C37.4825 13.3419 37.4079 13.2977 37.3311 13.2522C36.1318 12.5416 34.9314 11.8329 33.73 11.1259C33.6157 11.0586 33.5014 10.9913 33.3836 10.9219C33.2349 10.8345 33.2349 10.8345 33.0833 10.7453C32.8781 10.6236 32.6766 10.4957 32.4778 10.3637C31.9196 10.0586 31.5791 10.2155 31.0747 10.5203ZM3.49147 37.1628C3.49147 38.2024 3.49147 39.2419 3.49147 40.313C22.2558 40.313 41.0201 40.313 60.3531 40.313C60.3531 39.2734 60.3531 38.2339 60.3531 37.1628C41.5888 37.1628 22.8244 37.1628 3.49147 37.1628ZM6.85828 42.4552C6.85828 47.5284 6.85828 52.6016 6.85828 57.8286C9.20382 57.8286 11.5494 57.8286 13.966 57.8286C13.966 52.7554 13.966 47.6822 13.966 42.4552C11.6204 42.4552 9.2749 42.4552 6.85828 42.4552ZM16.0858 42.4552C16.0858 47.5284 16.0858 52.6016 16.0858 57.8286C19.419 57.8286 22.7521 57.8286 26.1862 57.8286C26.1862 52.7554 26.1862 47.6822 26.1862 42.4552C22.8531 42.4552 19.52 42.4552 16.0858 42.4552ZM28.3061 42.4552C28.3061 47.5284 28.3061 52.6016 28.3061 57.8286C30.6928 57.8286 33.0795 57.8286 35.5385 57.8286C35.5385 52.7554 35.5385 47.6822 35.5385 42.4552C33.1518 42.4552 30.7651 42.4552 28.3061 42.4552ZM37.6583 42.4552C37.6583 47.5284 37.6583 52.6016 37.6583 57.8286C40.9915 57.8286 44.3246 57.8286 47.7588 57.8286C47.7588 52.7554 47.7588 47.6822 47.7588 42.4552C44.4256 42.4552 41.0925 42.4552 37.6583 42.4552ZM49.8786 42.4552C49.8786 47.5284 49.8786 52.6016 49.8786 57.8286C52.2241 57.8286 54.5697 57.8286 56.9863 57.8286C56.9863 52.7554 56.9863 47.6822 56.9863 42.4552C54.6408 42.4552 52.2952 42.4552 49.8786 42.4552ZM3.49147 59.9708C3.49147 61.0103 3.5 60.9289 3.5 62C22.2643 62 41.0201 62.1282 60.3531 62.1282C60.3531 61.0886 60.3531 61.0419 60.3531 59.9708C41.5888 59.9708 22.8244 59.9708 3.49147 59.9708Z" fill="black" fill-opacity="0.2"/>
<path d="M33.9408 2.04506C34.0363 2.10017 34.1317 2.15527 34.2301 2.21205C34.5427 2.39339 34.8537 2.57721 35.1644 2.76175C35.2708 2.82475 35.3772 2.88776 35.4868 2.95267C36.0559 3.29029 36.6239 3.62992 37.1912 3.97067C37.9084 4.40112 38.6286 4.82634 39.3495 5.25047C40.4572 5.90246 41.5638 6.55622 42.6696 7.21151C42.7827 7.27854 42.7827 7.27854 42.8981 7.34691C43.5151 7.71257 44.1321 8.0783 44.7491 8.44404C45.2873 8.76305 45.8255 9.08203 46.3637 9.40096C46.477 9.46809 46.477 9.46809 46.5926 9.53658C47.7245 10.2073 48.8576 10.8761 49.9913 11.5437C51.0506 12.1678 52.1084 12.7945 53.1661 13.4214C54.1893 14.0279 55.2132 14.6332 56.2381 15.2368C56.6043 15.4527 56.9704 15.6685 57.3365 15.8844C57.6187 16.0507 57.9009 16.2169 58.1831 16.383C59.1075 16.9273 60.0305 17.4737 60.9517 18.0235C61.1996 18.1711 61.4478 18.3182 61.6966 18.4643C61.98 18.6308 62.2617 18.7998 62.5431 18.9699C62.6587 19.0366 62.6587 19.0366 62.7767 19.1047C63.4294 19.5068 63.7335 19.9986 63.9372 20.7405C64.0039 22.0801 63.2712 23.0887 62.5976 24.1836C62.5122 24.3286 62.4271 24.4738 62.3424 24.6192C61.8933 25.3692 61.4425 25.9981 60.6025 26.3258C60.3214 26.3549 60.3214 26.3549 60.0336 26.3494C59.9383 26.3486 59.8429 26.3478 59.7447 26.347C59.4802 26.3258 59.4802 26.3258 59.1061 26.1998C59.1061 29.1107 59.1061 32.0215 59.1061 35.0206C59.8057 35.0206 60.5052 35.0206 61.226 35.0206C62.0962 35.4603 62.0962 35.4603 62.3483 35.9026C62.502 36.4228 62.4954 36.9381 62.4983 37.4768C62.499 37.5806 62.4997 37.6844 62.5004 37.7913C62.5016 38.0105 62.5024 38.2298 62.5029 38.449C62.5041 38.7831 62.508 39.1171 62.5119 39.4511C62.5127 39.6646 62.5134 39.8781 62.5139 40.0915C62.5154 40.1908 62.5169 40.29 62.5185 40.3923C62.5161 41.004 62.4429 41.4268 62.0989 41.9512C61.4754 42.4552 61.4754 42.4552 59.1061 42.4552C59.1061 47.5284 59.1061 52.6016 59.1061 57.8286C59.888 57.8286 60.6945 57.8286 61.5 57.8286C62 57.8286 62.3776 57.9769 62.5 58.5C62.525 58.8636 62.5109 59.8032 62.5105 60.1667C62.511 60.27 62.5115 60.3733 62.5121 60.4797C62.5128 60.6977 62.5129 60.9156 62.5123 61.1336C62.5119 61.4652 62.5148 61.7966 62.518 62.1282C62.5183 62.3407 62.5184 62.5532 62.5182 62.7656C62.5171 62.6645 62.5194 62.8639 62.5182 62.7656C62.5 64 61.5 64 61 64C60.5 64 60.8014 64.0019 60 64C59.9016 64.0003 60.1014 63.9997 60 64C59.6682 64.0007 58.8318 64.0002 58.5 64C58.2605 64.0003 58.7395 63.9996 58.5 64C57.8403 64.001 56.6597 63.9999 56 64C55.2891 64.0002 54.2109 63.9991 53.5 64C51.9449 64.0017 50.5551 63.9994 49 64C48.0295 64.0003 49.9705 63.9994 49 64C46.3141 64.0015 40.6859 63.9996 38 64C37.6507 64.0001 38.3493 63.9999 38 64C39.0479 63.9998 39.5703 63.9997 38 64C35.1911 64.0005 40.8089 63.9971 38 64C35.0307 64.0031 21.4693 63.9998 18.5 64C16.8812 64.0001 20.1188 63.9977 18.5 64C17.1218 64.0019 19.8782 64.001 18.5 64C17.7965 63.9995 8.20345 63.9982 7.5 64C6.85627 64.0016 8.14373 64.0015 7.5 64C7.26689 63.9998 8.19934 63.9988 7.5 64C7.18347 64.0014 7.81653 64.0015 7.5 64C7.36381 64.0014 4.02044 63.9985 3.8815 64C3.24684 63.9934 3 64 2.5 64C2 64 1.34414 63.0446 1.34414 62.5043C1.34343 62.4003 1.34488 62.6114 1.34414 62.5043C1.34297 62.2843 1.34215 62.0643 1.34167 61.8443C1.34046 61.5091 1.33659 61.174 1.33266 60.8388C1.33184 60.6248 1.33119 60.4107 1.33071 60.1967C1.32917 60.097 1.32763 59.9974 1.32605 59.8947C1.32847 59.2818 1.40079 58.8579 1.74572 58.3326C2.3692 57.8286 2.3692 57.8286 4.73843 57.8286C4.73843 52.7554 4.73843 47.6822 4.73843 42.4552C3.95659 42.4552 3.17474 42.4552 2.3692 42.4552C1.49406 41.7183 1.49406 41.7183 1.37163 41.1951C1.34658 40.8316 1.3337 40.4806 1.33412 40.1171C1.33359 40.0138 1.33305 39.9105 1.3325 39.8041C1.33179 39.5861 1.33172 39.3682 1.33226 39.1502C1.33266 38.8186 1.32973 38.4872 1.32657 38.1556C1.32629 37.9431 1.3262 37.7306 1.32633 37.5182C1.32518 37.4199 1.32403 37.3217 1.32285 37.2205C1.32816 36.5786 1.41169 36.0885 1.74572 35.5246C2.61859 35.0206 2.61859 35.0206 4.73843 35.0206C4.73843 32.1097 4.73843 29.1989 4.73843 26.1998C4.61498 26.2414 4.49154 26.283 4.36435 26.3258C3.56935 26.3939 3.02514 26.2925 2.3692 25.8218C1.72452 25.1031 1.24532 24.2296 0.763731 23.3961C0.68979 23.275 0.615849 23.154 0.539667 23.0293C0.0335705 22.1491 -0.169249 21.4201 -3.52897e-05 20.4033C0.222465 19.6936 0.704645 19.3131 1.32487 18.9542C1.41041 18.9024 1.49596 18.8506 1.58409 18.7972C1.88587 18.6158 2.18965 18.4382 2.4939 18.2611C2.61146 18.1922 2.72902 18.1233 2.85015 18.0523C3.52352 17.6577 4.19814 17.2654 4.87336 16.874C5.72671 16.3781 6.57357 15.8717 7.41941 15.3629C8.64362 14.627 9.87369 13.9024 11.1086 13.185C12.1316 12.5903 13.1509 11.9895 14.1686 11.3856C14.283 11.3178 14.283 11.3178 14.3996 11.2486C14.5526 11.1578 14.7055 11.0671 14.8585 10.9763C14.9708 10.9097 14.9708 10.9097 15.0853 10.8417C15.1597 10.7976 15.234 10.7535 15.3107 10.708C16.0254 10.284 16.7413 9.86199 17.4575 9.44033C18.56 8.79106 19.6613 8.13962 20.7619 7.48716C21.9823 6.76376 23.2036 6.0419 24.4261 5.32224C25.1123 4.91812 25.7977 4.51276 26.4824 4.10603C27.3805 3.57254 28.2792 3.04033 29.179 2.50973C29.2924 2.44274 29.4059 2.37576 29.5229 2.30674C29.8025 2.14229 30.0828 1.97913 30.3636 1.81667C30.4396 1.77186 30.5156 1.72706 30.594 1.6809C31.8082 0.985749 32.8057 1.37137 33.9408 2.04506ZM31.1512 3.80085C31.0477 3.8637 30.9442 3.92655 30.8376 3.99131C30.7249 4.06117 30.6122 4.13103 30.4961 4.203C30.2479 4.35406 29.9996 4.505 29.7513 4.65585C29.6185 4.73691 29.4857 4.81796 29.3489 4.90148C28.6914 5.30047 28.0296 5.69175 27.3675 6.08296C27.1352 6.22028 26.9029 6.35776 26.6707 6.49529C25.5992 7.1297 24.5267 7.76223 23.4538 8.39416C22.4856 8.96463 21.5183 9.53686 20.5515 10.1098C20.476 10.1545 20.4006 10.1992 20.3228 10.2453C19.7833 10.565 19.2439 10.8847 18.7045 11.2045C16.3829 12.5807 14.0597 13.9541 11.7342 15.3236C10.1007 16.2857 8.46855 17.2501 6.83779 18.217C6.0941 18.6578 5.35005 19.098 4.60497 19.5365C4.46697 19.6177 4.32898 19.6989 4.1868 19.7826C3.92691 19.9355 3.66697 20.0882 3.40696 20.2409C3.29179 20.3086 3.17661 20.3763 3.05795 20.4461C2.95755 20.5051 2.85715 20.564 2.7537 20.6248C2.53845 20.7545 2.32834 20.8929 2.11981 21.0333C2.31832 21.7705 2.68809 22.3823 3.07062 23.0338C3.13491 23.1446 3.19921 23.2553 3.26546 23.3695C3.4233 23.6412 3.58178 23.9126 3.74086 24.1836C4.19157 24.0122 4.59954 23.8082 5.01608 23.5644C5.14298 23.4903 5.26989 23.4163 5.40064 23.3399C5.53703 23.2597 5.67342 23.1795 5.81394 23.0968C5.95852 23.0121 6.10311 22.9274 6.2477 22.8428C7.40746 22.1628 8.56061 21.4716 9.71302 20.779C10.797 20.1284 11.8874 19.4897 12.9804 18.8547C13.9898 18.2678 14.9958 17.6754 16.0001 17.0798C16.0751 17.0353 16.1501 16.9908 16.2274 16.9449C16.6086 16.7188 16.9897 16.4926 17.3708 16.2664C18.1398 15.8099 18.9092 15.354 19.6786 14.8982C19.754 14.8535 19.8293 14.8089 19.907 14.7629C21.537 13.7972 23.1692 12.8352 24.8018 11.8738C25.0446 11.7308 25.2874 11.5877 25.5302 11.4446C25.7744 11.3008 26.0188 11.1573 26.2634 11.0141C26.8919 10.6453 27.5172 10.2723 28.1376 9.88984C28.4617 9.69031 28.7868 9.49252 29.112 9.29484C29.2689 9.19883 29.4253 9.102 29.5811 9.00429C31.4025 7.86318 31.4025 7.86318 32.5522 8.10888C33.2504 8.34268 33.8769 8.75695 34.5019 9.14106C34.7456 9.28865 34.9893 9.43615 35.2331 9.58357C35.4276 9.70159 35.4276 9.70159 35.626 9.822C36.2812 10.2177 36.94 10.6074 37.5988 10.997C37.8313 11.1345 38.0638 11.2722 38.2963 11.4098C39.3672 12.0439 40.4393 12.6762 41.5117 13.3078C42.5711 13.9319 43.629 14.5586 44.6867 15.1856C45.7099 15.7921 46.7338 16.3974 47.7588 17.001C48.9389 17.696 50.1175 18.3936 51.2956 19.0919C52.4375 19.7688 53.5802 20.4442 54.7244 21.1172C55.3444 21.4821 55.9637 21.8484 56.5816 22.217C56.9131 22.4148 57.2448 22.6122 57.5764 22.8097C57.7374 22.9057 57.8983 23.0018 58.0592 23.0981C58.2837 23.2326 58.5086 23.3666 58.7335 23.5004C58.8627 23.5776 58.9919 23.6548 59.125 23.7343C59.4459 23.9125 59.7608 24.0555 60.1037 24.1836C60.3748 23.7063 60.6446 23.2284 60.9142 22.7502C60.9916 22.6141 61.0689 22.478 61.1485 22.3378C61.2217 22.2078 61.2948 22.0779 61.3702 21.944C61.472 21.7638 61.472 21.7638 61.576 21.58C61.7437 21.3031 61.7437 21.3031 61.7248 21.0333C61.4264 20.821 61.4264 20.821 61.0389 20.6022C60.9669 20.5598 60.8948 20.5174 60.8205 20.4738C60.5821 20.3339 60.3429 20.1953 60.1037 20.0568C59.9372 19.9594 59.7708 19.8619 59.6044 19.7644C59.2663 19.5663 58.928 19.3687 58.5893 19.1715C57.9288 18.7867 57.2705 18.3978 56.6122 18.0091C56.3685 17.8655 56.1248 17.7219 55.8811 17.5784C55.0356 17.08 54.1911 16.5799 53.3467 16.0795C53.2712 16.0348 53.1958 15.9901 53.118 15.944C52.501 15.5784 51.8841 15.2127 51.2672 14.847C50.729 14.528 50.1908 14.209 49.6526 13.8901C49.5393 13.823 49.5393 13.823 49.4237 13.7545C48.4122 13.1552 47.4001 12.5572 46.3871 11.9606C45.2977 11.3189 44.2093 10.6755 43.1216 10.031C43.0461 9.98628 42.9706 9.94156 42.8929 9.89547C42.2759 9.52987 41.659 9.16418 41.042 8.79848C40.58 8.5246 40.118 8.25075 39.6559 7.97693C39.5038 7.88682 39.3518 7.7967 39.1997 7.70657C38.4183 7.24346 37.6366 6.78095 36.8536 6.32058C36.7263 6.24566 36.5989 6.17075 36.4677 6.09357C36.2207 5.94838 35.9736 5.80331 35.7265 5.65837C35.1282 5.30654 34.5334 4.95012 33.9432 4.58448C33.8285 4.51363 33.7137 4.44277 33.5955 4.36977C33.3797 4.23604 33.1644 4.10136 32.9498 3.96559C32.8067 3.87698 32.8067 3.87698 32.6607 3.78657C32.5779 3.73445 32.4951 3.68233 32.4097 3.62863C31.9131 3.39747 31.5828 3.53508 31.1512 3.80085ZM31.0747 10.5203C30.9568 10.5908 30.8389 10.6612 30.7174 10.7338C30.5903 10.8112 30.4633 10.8885 30.3324 10.9682C30.0595 11.1318 29.7866 11.2954 29.5136 11.459C29.3048 11.5848 29.3048 11.5848 29.0917 11.7133C28.4712 12.0861 27.8469 12.4524 27.2228 12.819C26.0297 13.5218 24.8383 14.2274 23.6471 14.9335C22.5034 15.6114 21.3586 16.2874 20.213 16.9621C19.2312 17.5405 18.2507 18.1211 17.2704 18.7021C16.1698 19.3546 15.0685 20.006 13.966 20.6553C10.2094 22.5455 10.2094 22.5455 6.85828 24.9397C6.85828 28.2664 6.85828 31.5931 6.85828 35.0206C23.4005 35.0206 39.9428 35.0206 56.9863 35.0206C56.9863 31.6939 56.9863 28.3672 56.9863 24.9397C56.0789 24.3254 56.0789 24.3254 55.1504 23.7583C55.0232 23.6846 54.896 23.6109 54.765 23.5349C54.6313 23.4579 54.4976 23.3809 54.3599 23.3015C54.1431 23.1759 53.9264 23.0503 53.7097 22.9246C53.5623 22.8391 53.415 22.7536 53.2675 22.6682C52.5594 22.2578 51.8538 21.8431 51.1489 21.4271C51.0282 21.3559 50.9075 21.2847 50.7831 21.2113C49.6403 20.5366 48.4987 19.8598 47.357 19.1831C46.411 18.6224 45.4642 18.0631 44.5166 17.505C43.4272 16.8634 42.3389 16.22 41.2511 15.5755C41.1757 15.5308 41.1002 15.486 41.0224 15.44C40.4054 15.0744 39.7885 14.7087 39.1716 14.343C38.6334 14.024 38.0952 13.705 37.557 13.3861C37.4825 13.3419 37.4079 13.2977 37.3311 13.2522C36.1318 12.5416 34.9314 11.8329 33.73 11.1259C33.6157 11.0586 33.5014 10.9913 33.3836 10.9219C33.2349 10.8345 33.2349 10.8345 33.0833 10.7453C32.8781 10.6236 32.6766 10.4957 32.4778 10.3637C31.9196 10.0586 31.5791 10.2155 31.0747 10.5203ZM3.49147 37.1628C3.49147 38.2024 3.49147 39.2419 3.49147 40.313C22.2558 40.313 41.0201 40.313 60.3531 40.313C60.3531 39.2734 60.3531 38.2339 60.3531 37.1628C41.5888 37.1628 22.8244 37.1628 3.49147 37.1628ZM6.85828 42.4552C6.85828 47.5284 6.85828 52.6016 6.85828 57.8286C9.20382 57.8286 11.5494 57.8286 13.966 57.8286C13.966 52.7554 13.966 47.6822 13.966 42.4552C11.6204 42.4552 9.2749 42.4552 6.85828 42.4552ZM16.0858 42.4552C16.0858 47.5284 16.0858 52.6016 16.0858 57.8286C19.419 57.8286 22.7521 57.8286 26.1862 57.8286C26.1862 52.7554 26.1862 47.6822 26.1862 42.4552C22.8531 42.4552 19.52 42.4552 16.0858 42.4552ZM28.3061 42.4552C28.3061 47.5284 28.3061 52.6016 28.3061 57.8286C30.6928 57.8286 33.0795 57.8286 35.5385 57.8286C35.5385 52.7554 35.5385 47.6822 35.5385 42.4552C33.1518 42.4552 30.7651 42.4552 28.3061 42.4552ZM37.6583 42.4552C37.6583 47.5284 37.6583 52.6016 37.6583 57.8286C40.9915 57.8286 44.3246 57.8286 47.7588 57.8286C47.7588 52.7554 47.7588 47.6822 47.7588 42.4552C44.4256 42.4552 41.0925 42.4552 37.6583 42.4552ZM49.8786 42.4552C49.8786 47.5284 49.8786 52.6016 49.8786 57.8286C52.2241 57.8286 54.5697 57.8286 56.9863 57.8286C56.9863 52.7554 56.9863 47.6822 56.9863 42.4552C54.6408 42.4552 52.2952 42.4552 49.8786 42.4552ZM3.49147 59.9708C3.49147 61.0103 3.5 60.9289 3.5 62C22.2643 62 41.0201 62.1282 60.3531 62.1282C60.3531 61.0886 60.3531 61.0419 60.3531 59.9708C41.5888 59.9708 22.8244 59.9708 3.49147 59.9708Z" fill="black" fill-opacity="0.2"/>
<path d="M33.9408 2.04506C34.0363 2.10017 34.1317 2.15527 34.2301 2.21205C34.5427 2.39339 34.8537 2.57721 35.1644 2.76175C35.2708 2.82475 35.3772 2.88776 35.4868 2.95267C36.0559 3.29029 36.6239 3.62992 37.1912 3.97067C37.9084 4.40112 38.6286 4.82634 39.3495 5.25047C40.4572 5.90246 41.5638 6.55622 42.6696 7.21151C42.7827 7.27854 42.7827 7.27854 42.8981 7.34691C43.5151 7.71257 44.1321 8.0783 44.7491 8.44404C45.2873 8.76305 45.8255 9.08203 46.3637 9.40096C46.477 9.46809 46.477 9.46809 46.5926 9.53658C47.7245 10.2073 48.8576 10.8761 49.9913 11.5437C51.0506 12.1678 52.1084 12.7945 53.1661 13.4214C54.1893 14.0279 55.2132 14.6332 56.2381 15.2368C56.6043 15.4527 56.9704 15.6685 57.3365 15.8844C57.6187 16.0507 57.9009 16.2169 58.1831 16.383C59.1075 16.9273 60.0305 17.4737 60.9517 18.0235C61.1996 18.1711 61.4478 18.3182 61.6966 18.4643C61.98 18.6308 62.2617 18.7998 62.5431 18.9699C62.6587 19.0366 62.6587 19.0366 62.7767 19.1047C63.4294 19.5068 63.7335 19.9986 63.9372 20.7405C64.0039 22.0801 63.2712 23.0887 62.5976 24.1836C62.5122 24.3286 62.4271 24.4738 62.3424 24.6192C61.8933 25.3692 61.4425 25.9981 60.6025 26.3258C60.3214 26.3549 60.3214 26.3549 60.0336 26.3494C59.9383 26.3486 59.8429 26.3478 59.7447 26.347C59.4802 26.3258 59.4802 26.3258 59.1061 26.1998C59.1061 29.1107 59.1061 32.0215 59.1061 35.0206C59.8057 35.0206 60.5052 35.0206 61.226 35.0206C62.0962 35.4603 62.0962 35.4603 62.3483 35.9026C62.502 36.4228 62.4954 36.9381 62.4983 37.4768C62.499 37.5806 62.4997 37.6844 62.5004 37.7913C62.5016 38.0105 62.5024 38.2298 62.5029 38.449C62.5041 38.7831 62.508 39.1171 62.5119 39.4511C62.5127 39.6646 62.5134 39.8781 62.5139 40.0915C62.5154 40.1908 62.5169 40.29 62.5185 40.3923C62.5161 41.004 62.4429 41.4268 62.0989 41.9512C61.4754 42.4552 61.4754 42.4552 59.1061 42.4552C59.1061 47.5284 59.1061 52.6016 59.1061 57.8286C59.888 57.8286 60.6945 57.8286 61.5 57.8286C62 57.8286 62.3776 57.9769 62.5 58.5C62.525 58.8636 62.5109 59.8032 62.5105 60.1667C62.511 60.27 62.5115 60.3733 62.5121 60.4797C62.5128 60.6977 62.5129 60.9156 62.5123 61.1336C62.5119 61.4652 62.5148 61.7966 62.518 62.1282C62.5183 62.3407 62.5184 62.5532 62.5182 62.7656C62.5171 62.6645 62.5194 62.8639 62.5182 62.7656C62.5 64 61.5 64 61 64C60.5 64 60.8014 64.0019 60 64C59.9016 64.0003 60.1014 63.9997 60 64C59.6682 64.0007 58.8318 64.0002 58.5 64C58.2605 64.0003 58.7395 63.9996 58.5 64C57.8403 64.001 56.6597 63.9999 56 64C55.2891 64.0002 54.2109 63.9991 53.5 64C51.9449 64.0017 50.5551 63.9994 49 64C48.0295 64.0003 49.9705 63.9994 49 64C46.3141 64.0015 40.6859 63.9996 38 64C37.6507 64.0001 38.3493 63.9999 38 64C39.0479 63.9998 39.5703 63.9997 38 64C35.1911 64.0005 40.8089 63.9971 38 64C35.0307 64.0031 21.4693 63.9998 18.5 64C16.8812 64.0001 20.1188 63.9977 18.5 64C17.1218 64.0019 19.8782 64.001 18.5 64C17.7965 63.9995 8.20345 63.9982 7.5 64C6.85627 64.0016 8.14373 64.0015 7.5 64C7.26689 63.9998 8.19934 63.9988 7.5 64C7.18347 64.0014 7.81653 64.0015 7.5 64C7.36381 64.0014 4.02044 63.9985 3.8815 64C3.24684 63.9934 3 64 2.5 64C2 64 1.34414 63.0446 1.34414 62.5043C1.34343 62.4003 1.34488 62.6114 1.34414 62.5043C1.34297 62.2843 1.34215 62.0643 1.34167 61.8443C1.34046 61.5091 1.33659 61.174 1.33266 60.8388C1.33184 60.6248 1.33119 60.4107 1.33071 60.1967C1.32917 60.097 1.32763 59.9974 1.32605 59.8947C1.32847 59.2818 1.40079 58.8579 1.74572 58.3326C2.3692 57.8286 2.3692 57.8286 4.73843 57.8286C4.73843 52.7554 4.73843 47.6822 4.73843 42.4552C3.95659 42.4552 3.17474 42.4552 2.3692 42.4552C1.49406 41.7183 1.49406 41.7183 1.37163 41.1951C1.34658 40.8316 1.3337 40.4806 1.33412 40.1171C1.33359 40.0138 1.33305 39.9105 1.3325 39.8041C1.33179 39.5861 1.33172 39.3682 1.33226 39.1502C1.33266 38.8186 1.32973 38.4872 1.32657 38.1556C1.32629 37.9431 1.3262 37.7306 1.32633 37.5182C1.32518 37.4199 1.32403 37.3217 1.32285 37.2205C1.32816 36.5786 1.41169 36.0885 1.74572 35.5246C2.61859 35.0206 2.61859 35.0206 4.73843 35.0206C4.73843 32.1097 4.73843 29.1989 4.73843 26.1998C4.61498 26.2414 4.49154 26.283 4.36435 26.3258C3.56935 26.3939 3.02514 26.2925 2.3692 25.8218C1.72452 25.1031 1.24532 24.2296 0.763731 23.3961C0.68979 23.275 0.615849 23.154 0.539667 23.0293C0.0335705 22.1491 -0.169249 21.4201 -3.52897e-05 20.4033C0.222465 19.6936 0.704645 19.3131 1.32487 18.9542C1.41041 18.9024 1.49596 18.8506 1.58409 18.7972C1.88587 18.6158 2.18965 18.4382 2.4939 18.2611C2.61146 18.1922 2.72902 18.1233 2.85015 18.0523C3.52352 17.6577 4.19814 17.2654 4.87336 16.874C5.72671 16.3781 6.57357 15.8717 7.41941 15.3629C8.64362 14.627 9.87369 13.9024 11.1086 13.185C12.1316 12.5903 13.1509 11.9895 14.1686 11.3856C14.283 11.3178 14.283 11.3178 14.3996 11.2486C14.5526 11.1578 14.7055 11.0671 14.8585 10.9763C14.9708 10.9097 14.9708 10.9097 15.0853 10.8417C15.1597 10.7976 15.234 10.7535 15.3107 10.708C16.0254 10.284 16.7413 9.86199 17.4575 9.44033C18.56 8.79106 19.6613 8.13962 20.7619 7.48716C21.9823 6.76376 23.2036 6.0419 24.4261 5.32224C25.1123 4.91812 25.7977 4.51276 26.4824 4.10603C27.3805 3.57254 28.2792 3.04033 29.179 2.50973C29.2924 2.44274 29.4059 2.37576 29.5229 2.30674C29.8025 2.14229 30.0828 1.97913 30.3636 1.81667C30.4396 1.77186 30.5156 1.72706 30.594 1.6809C31.8082 0.985749 32.8057 1.37137 33.9408 2.04506ZM31.1512 3.80085C31.0477 3.8637 30.9442 3.92655 30.8376 3.99131C30.7249 4.06117 30.6122 4.13103 30.4961 4.203C30.2479 4.35406 29.9996 4.505 29.7513 4.65585C29.6185 4.73691 29.4857 4.81796 29.3489 4.90148C28.6914 5.30047 28.0296 5.69175 27.3675 6.08296C27.1352 6.22028 26.9029 6.35776 26.6707 6.49529C25.5992 7.1297 24.5267 7.76223 23.4538 8.39416C22.4856 8.96463 21.5183 9.53686 20.5515 10.1098C20.476 10.1545 20.4006 10.1992 20.3228 10.2453C19.7833 10.565 19.2439 10.8847 18.7045 11.2045C16.3829 12.5807 14.0597 13.9541 11.7342 15.3236C10.1007 16.2857 8.46855 17.2501 6.83779 18.217C6.0941 18.6578 5.35005 19.098 4.60497 19.5365C4.46697 19.6177 4.32898 19.6989 4.1868 19.7826C3.92691 19.9355 3.66697 20.0882 3.40696 20.2409C3.29179 20.3086 3.17661 20.3763 3.05795 20.4461C2.95755 20.5051 2.85715 20.564 2.7537 20.6248C2.53845 20.7545 2.32834 20.8929 2.11981 21.0333C2.31832 21.7705 2.68809 22.3823 3.07062 23.0338C3.13491 23.1446 3.19921 23.2553 3.26546 23.3695C3.4233 23.6412 3.58178 23.9126 3.74086 24.1836C4.19157 24.0122 4.59954 23.8082 5.01608 23.5644C5.14298 23.4903 5.26989 23.4163 5.40064 23.3399C5.53703 23.2597 5.67342 23.1795 5.81394 23.0968C5.95852 23.0121 6.10311 22.9274 6.2477 22.8428C7.40746 22.1628 8.56061 21.4716 9.71302 20.779C10.797 20.1284 11.8874 19.4897 12.9804 18.8547C13.9898 18.2678 14.9958 17.6754 16.0001 17.0798C16.0751 17.0353 16.1501 16.9908 16.2274 16.9449C16.6086 16.7188 16.9897 16.4926 17.3708 16.2664C18.1398 15.8099 18.9092 15.354 19.6786 14.8982C19.754 14.8535 19.8293 14.8089 19.907 14.7629C21.537 13.7972 23.1692 12.8352 24.8018 11.8738C25.0446 11.7308 25.2874 11.5877 25.5302 11.4446C25.7744 11.3008 26.0188 11.1573 26.2634 11.0141C26.8919 10.6453 27.5172 10.2723 28.1376 9.88984C28.4617 9.69031 28.7868 9.49252 29.112 9.29484C29.2689 9.19883 29.4253 9.102 29.5811 9.00429C31.4025 7.86318 31.4025 7.86318 32.5522 8.10888C33.2504 8.34268 33.8769 8.75695 34.5019 9.14106C34.7456 9.28865 34.9893 9.43615 35.2331 9.58357C35.4276 9.70159 35.4276 9.70159 35.626 9.822C36.2812 10.2177 36.94 10.6074 37.5988 10.997C37.8313 11.1345 38.0638 11.2722 38.2963 11.4098C39.3672 12.0439 40.4393 12.6762 41.5117 13.3078C42.5711 13.9319 43.629 14.5586 44.6867 15.1856C45.7099 15.7921 46.7338 16.3974 47.7588 17.001C48.9389 17.696 50.1175 18.3936 51.2956 19.0919C52.4375 19.7688 53.5802 20.4442 54.7244 21.1172C55.3444 21.4821 55.9637 21.8484 56.5816 22.217C56.9131 22.4148 57.2448 22.6122 57.5764 22.8097C57.7374 22.9057 57.8983 23.0018 58.0592 23.0981C58.2837 23.2326 58.5086 23.3666 58.7335 23.5004C58.8627 23.5776 58.9919 23.6548 59.125 23.7343C59.4459 23.9125 59.7608 24.0555 60.1037 24.1836C60.3748 23.7063 60.6446 23.2284 60.9142 22.7502C60.9916 22.6141 61.0689 22.478 61.1485 22.3378C61.2217 22.2078 61.2948 22.0779 61.3702 21.944C61.472 21.7638 61.472 21.7638 61.576 21.58C61.7437 21.3031 61.7437 21.3031 61.7248 21.0333C61.4264 20.821 61.4264 20.821 61.0389 20.6022C60.9669 20.5598 60.8948 20.5174 60.8205 20.4738C60.5821 20.3339 60.3429 20.1953 60.1037 20.0568C59.9372 19.9594 59.7708 19.8619 59.6044 19.7644C59.2663 19.5663 58.928 19.3687 58.5893 19.1715C57.9288 18.7867 57.2705 18.3978 56.6122 18.0091C56.3685 17.8655 56.1248 17.7219 55.8811 17.5784C55.0356 17.08 54.1911 16.5799 53.3467 16.0795C53.2712 16.0348 53.1958 15.9901 53.118 15.944C52.501 15.5784 51.8841 15.2127 51.2672 14.847C50.729 14.528 50.1908 14.209 49.6526 13.8901C49.5393 13.823 49.5393 13.823 49.4237 13.7545C48.4122 13.1552 47.4001 12.5572 46.3871 11.9606C45.2977 11.3189 44.2093 10.6755 43.1216 10.031C43.0461 9.98628 42.9706 9.94156 42.8929 9.89547C42.2759 9.52987 41.659 9.16418 41.042 8.79848C40.58 8.5246 40.118 8.25075 39.6559 7.97693C39.5038 7.88682 39.3518 7.7967 39.1997 7.70657C38.4183 7.24346 37.6366 6.78095 36.8536 6.32058C36.7263 6.24566 36.5989 6.17075 36.4677 6.09357C36.2207 5.94838 35.9736 5.80331 35.7265 5.65837C35.1282 5.30654 34.5334 4.95012 33.9432 4.58448C33.8285 4.51363 33.7137 4.44277 33.5955 4.36977C33.3797 4.23604 33.1644 4.10136 32.9498 3.96559C32.8067 3.87698 32.8067 3.87698 32.6607 3.78657C32.5779 3.73445 32.4951 3.68233 32.4097 3.62863C31.9131 3.39747 31.5828 3.53508 31.1512 3.80085ZM31.0747 10.5203C30.9568 10.5908 30.8389 10.6612 30.7174 10.7338C30.5903 10.8112 30.4633 10.8885 30.3324 10.9682C30.0595 11.1318 29.7866 11.2954 29.5136 11.459C29.3048 11.5848 29.3048 11.5848 29.0917 11.7133C28.4712 12.0861 27.8469 12.4524 27.2228 12.819C26.0297 13.5218 24.8383 14.2274 23.6471 14.9335C22.5034 15.6114 21.3586 16.2874 20.213 16.9621C19.2312 17.5405 18.2507 18.1211 17.2704 18.7021C16.1698 19.3546 15.0685 20.006 13.966 20.6553C10.2094 22.5455 10.2094 22.5455 6.85828 24.9397C6.85828 28.2664 6.85828 31.5931 6.85828 35.0206C23.4005 35.0206 39.9428 35.0206 56.9863 35.0206C56.9863 31.6939 56.9863 28.3672 56.9863 24.9397C56.0789 24.3254 56.0789 24.3254 55.1504 23.7583C55.0232 23.6846 54.896 23.6109 54.765 23.5349C54.6313 23.4579 54.4976 23.3809 54.3599 23.3015C54.1431 23.1759 53.9264 23.0503 53.7097 22.9246C53.5623 22.8391 53.415 22.7536 53.2675 22.6682C52.5594 22.2578 51.8538 21.8431 51.1489 21.4271C51.0282 21.3559 50.9075 21.2847 50.7831 21.2113C49.6403 20.5366 48.4987 19.8598 47.357 19.1831C46.411 18.6224 45.4642 18.0631 44.5166 17.505C43.4272 16.8634 42.3389 16.22 41.2511 15.5755C41.1757 15.5308 41.1002 15.486 41.0224 15.44C40.4054 15.0744 39.7885 14.7087 39.1716 14.343C38.6334 14.024 38.0952 13.705 37.557 13.3861C37.4825 13.3419 37.4079 13.2977 37.3311 13.2522C36.1318 12.5416 34.9314 11.8329 33.73 11.1259C33.6157 11.0586 33.5014 10.9913 33.3836 10.9219C33.2349 10.8345 33.2349 10.8345 33.0833 10.7453C32.8781 10.6236 32.6766 10.4957 32.4778 10.3637C31.9196 10.0586 31.5791 10.2155 31.0747 10.5203ZM3.49147 37.1628C3.49147 38.2024 3.49147 39.2419 3.49147 40.313C22.2558 40.313 41.0201 40.313 60.3531 40.313C60.3531 39.2734 60.3531 38.2339 60.3531 37.1628C41.5888 37.1628 22.8244 37.1628 3.49147 37.1628ZM6.85828 42.4552C6.85828 47.5284 6.85828 52.6016 6.85828 57.8286C9.20382 57.8286 11.5494 57.8286 13.966 57.8286C13.966 52.7554 13.966 47.6822 13.966 42.4552C11.6204 42.4552 9.2749 42.4552 6.85828 42.4552ZM16.0858 42.4552C16.0858 47.5284 16.0858 52.6016 16.0858 57.8286C19.419 57.8286 22.7521 57.8286 26.1862 57.8286C26.1862 52.7554 26.1862 47.6822 26.1862 42.4552C22.8531 42.4552 19.52 42.4552 16.0858 42.4552ZM28.3061 42.4552C28.3061 47.5284 28.3061 52.6016 28.3061 57.8286C30.6928 57.8286 33.0795 57.8286 35.5385 57.8286C35.5385 52.7554 35.5385 47.6822 35.5385 42.4552C33.1518 42.4552 30.7651 42.4552 28.3061 42.4552ZM37.6583 42.4552C37.6583 47.5284 37.6583 52.6016 37.6583 57.8286C40.9915 57.8286 44.3246 57.8286 47.7588 57.8286C47.7588 52.7554 47.7588 47.6822 47.7588 42.4552C44.4256 42.4552 41.0925 42.4552 37.6583 42.4552ZM49.8786 42.4552C49.8786 47.5284 49.8786 52.6016 49.8786 57.8286C52.2241 57.8286 54.5697 57.8286 56.9863 57.8286C56.9863 52.7554 56.9863 47.6822 56.9863 42.4552C54.6408 42.4552 52.2952 42.4552 49.8786 42.4552ZM3.49147 59.9708C3.49147 61.0103 3.5 60.9289 3.5 62C22.2643 62 41.0201 62.1282 60.3531 62.1282C60.3531 61.0886 60.3531 61.0419 60.3531 59.9708C41.5888 59.9708 22.8244 59.9708 3.49147 59.9708Z" fill="black" fill-opacity="0.2"/>
<path d="M33.9408 2.04506C34.0363 2.10017 34.1317 2.15527 34.2301 2.21205C34.5427 2.39339 34.8537 2.57721 35.1644 2.76175C35.2708 2.82475 35.3772 2.88776 35.4868 2.95267C36.0559 3.29029 36.6239 3.62992 37.1912 3.97067C37.9084 4.40112 38.6286 4.82634 39.3495 5.25047C40.4572 5.90246 41.5638 6.55622 42.6696 7.21151C42.7827 7.27854 42.7827 7.27854 42.8981 7.34691C43.5151 7.71257 44.1321 8.0783 44.7491 8.44404C45.2873 8.76305 45.8255 9.08203 46.3637 9.40096C46.477 9.46809 46.477 9.46809 46.5926 9.53658C47.7245 10.2073 48.8576 10.8761 49.9913 11.5437C51.0506 12.1678 52.1084 12.7945 53.1661 13.4214C54.1893 14.0279 55.2132 14.6332 56.2381 15.2368C56.6043 15.4527 56.9704 15.6685 57.3365 15.8844C57.6187 16.0507 57.9009 16.2169 58.1831 16.383C59.1075 16.9273 60.0305 17.4737 60.9517 18.0235C61.1996 18.1711 61.4478 18.3182 61.6966 18.4643C61.98 18.6308 62.2617 18.7998 62.5431 18.9699C62.6587 19.0366 62.6587 19.0366 62.7767 19.1047C63.4294 19.5068 63.7335 19.9986 63.9372 20.7405C64.0039 22.0801 63.2712 23.0887 62.5976 24.1836C62.5122 24.3286 62.4271 24.4738 62.3424 24.6192C61.8933 25.3692 61.4425 25.9981 60.6025 26.3258C60.3214 26.3549 60.3214 26.3549 60.0336 26.3494C59.9383 26.3486 59.8429 26.3478 59.7447 26.347C59.4802 26.3258 59.4802 26.3258 59.1061 26.1998C59.1061 29.1107 59.1061 32.0215 59.1061 35.0206C59.8057 35.0206 60.5052 35.0206 61.226 35.0206C62.0962 35.4603 62.0962 35.4603 62.3483 35.9026C62.502 36.4228 62.4954 36.9381 62.4983 37.4768C62.499 37.5806 62.4997 37.6844 62.5004 37.7913C62.5016 38.0105 62.5024 38.2298 62.5029 38.449C62.5041 38.7831 62.508 39.1171 62.5119 39.4511C62.5127 39.6646 62.5134 39.8781 62.5139 40.0915C62.5154 40.1908 62.5169 40.29 62.5185 40.3923C62.5161 41.004 62.4429 41.4268 62.0989 41.9512C61.4754 42.4552 61.4754 42.4552 59.1061 42.4552C59.1061 47.5284 59.1061 52.6016 59.1061 57.8286C59.888 57.8286 60.6945 57.8286 61.5 57.8286C62 57.8286 62.3776 57.9769 62.5 58.5C62.525 58.8636 62.5109 59.8032 62.5105 60.1667C62.511 60.27 62.5115 60.3733 62.5121 60.4797C62.5128 60.6977 62.5129 60.9156 62.5123 61.1336C62.5119 61.4652 62.5148 61.7966 62.518 62.1282C62.5183 62.3407 62.5184 62.5532 62.5182 62.7656C62.5171 62.6645 62.5194 62.8639 62.5182 62.7656C62.5 64 61.5 64 61 64C60.5 64 60.8014 64.0019 60 64C59.9016 64.0003 60.1014 63.9997 60 64C59.6682 64.0007 58.8318 64.0002 58.5 64C58.2605 64.0003 58.7395 63.9996 58.5 64C57.8403 64.001 56.6597 63.9999 56 64C55.2891 64.0002 54.2109 63.9991 53.5 64C51.9449 64.0017 50.5551 63.9994 49 64C48.0295 64.0003 49.9705 63.9994 49 64C46.3141 64.0015 40.6859 63.9996 38 64C37.6507 64.0001 38.3493 63.9999 38 64C39.0479 63.9998 39.5703 63.9997 38 64C35.1911 64.0005 40.8089 63.9971 38 64C35.0307 64.0031 21.4693 63.9998 18.5 64C16.8812 64.0001 20.1188 63.9977 18.5 64C17.1218 64.0019 19.8782 64.001 18.5 64C17.7965 63.9995 8.20345 63.9982 7.5 64C6.85627 64.0016 8.14373 64.0015 7.5 64C7.26689 63.9998 8.19934 63.9988 7.5 64C7.18347 64.0014 7.81653 64.0015 7.5 64C7.36381 64.0014 4.02044 63.9985 3.8815 64C3.24684 63.9934 3 64 2.5 64C2 64 1.34414 63.0446 1.34414 62.5043C1.34343 62.4003 1.34488 62.6114 1.34414 62.5043C1.34297 62.2843 1.34215 62.0643 1.34167 61.8443C1.34046 61.5091 1.33659 61.174 1.33266 60.8388C1.33184 60.6248 1.33119 60.4107 1.33071 60.1967C1.32917 60.097 1.32763 59.9974 1.32605 59.8947C1.32847 59.2818 1.40079 58.8579 1.74572 58.3326C2.3692 57.8286 2.3692 57.8286 4.73843 57.8286C4.73843 52.7554 4.73843 47.6822 4.73843 42.4552C3.95659 42.4552 3.17474 42.4552 2.3692 42.4552C1.49406 41.7183 1.49406 41.7183 1.37163 41.1951C1.34658 40.8316 1.3337 40.4806 1.33412 40.1171C1.33359 40.0138 1.33305 39.9105 1.3325 39.8041C1.33179 39.5861 1.33172 39.3682 1.33226 39.1502C1.33266 38.8186 1.32973 38.4872 1.32657 38.1556C1.32629 37.9431 1.3262 37.7306 1.32633 37.5182C1.32518 37.4199 1.32403 37.3217 1.32285 37.2205C1.32816 36.5786 1.41169 36.0885 1.74572 35.5246C2.61859 35.0206 2.61859 35.0206 4.73843 35.0206C4.73843 32.1097 4.73843 29.1989 4.73843 26.1998C4.61498 26.2414 4.49154 26.283 4.36435 26.3258C3.56935 26.3939 3.02514 26.2925 2.3692 25.8218C1.72452 25.1031 1.24532 24.2296 0.763731 23.3961C0.68979 23.275 0.615849 23.154 0.539667 23.0293C0.0335705 22.1491 -0.169249 21.4201 -3.52897e-05 20.4033C0.222465 19.6936 0.704645 19.3131 1.32487 18.9542C1.41041 18.9024 1.49596 18.8506 1.58409 18.7972C1.88587 18.6158 2.18965 18.4382 2.4939 18.2611C2.61146 18.1922 2.72902 18.1233 2.85015 18.0523C3.52352 17.6577 4.19814 17.2654 4.87336 16.874C5.72671 16.3781 6.57357 15.8717 7.41941 15.3629C8.64362 14.627 9.87369 13.9024 11.1086 13.185C12.1316 12.5903 13.1509 11.9895 14.1686 11.3856C14.283 11.3178 14.283 11.3178 14.3996 11.2486C14.5526 11.1578 14.7055 11.0671 14.8585 10.9763C14.9708 10.9097 14.9708 10.9097 15.0853 10.8417C15.1597 10.7976 15.234 10.7535 15.3107 10.708C16.0254 10.284 16.7413 9.86199 17.4575 9.44033C18.56 8.79106 19.6613 8.13962 20.7619 7.48716C21.9823 6.76376 23.2036 6.0419 24.4261 5.32224C25.1123 4.91812 25.7977 4.51276 26.4824 4.10603C27.3805 3.57254 28.2792 3.04033 29.179 2.50973C29.2924 2.44274 29.4059 2.37576 29.5229 2.30674C29.8025 2.14229 30.0828 1.97913 30.3636 1.81667C30.4396 1.77186 30.5156 1.72706 30.594 1.6809C31.8082 0.985749 32.8057 1.37137 33.9408 2.04506ZM31.1512 3.80085C31.0477 3.8637 30.9442 3.92655 30.8376 3.99131C30.7249 4.06117 30.6122 4.13103 30.4961 4.203C30.2479 4.35406 29.9996 4.505 29.7513 4.65585C29.6185 4.73691 29.4857 4.81796 29.3489 4.90148C28.6914 5.30047 28.0296 5.69175 27.3675 6.08296C27.1352 6.22028 26.9029 6.35776 26.6707 6.49529C25.5992 7.1297 24.5267 7.76223 23.4538 8.39416C22.4856 8.96463 21.5183 9.53686 20.5515 10.1098C20.476 10.1545 20.4006 10.1992 20.3228 10.2453C19.7833 10.565 19.2439 10.8847 18.7045 11.2045C16.3829 12.5807 14.0597 13.9541 11.7342 15.3236C10.1007 16.2857 8.46855 17.2501 6.83779 18.217C6.0941 18.6578 5.35005 19.098 4.60497 19.5365C4.46697 19.6177 4.32898 19.6989 4.1868 19.7826C3.92691 19.9355 3.66697 20.0882 3.40696 20.2409C3.29179 20.3086 3.17661 20.3763 3.05795 20.4461C2.95755 20.5051 2.85715 20.564 2.7537 20.6248C2.53845 20.7545 2.32834 20.8929 2.11981 21.0333C2.31832 21.7705 2.68809 22.3823 3.07062 23.0338C3.13491 23.1446 3.19921 23.2553 3.26546 23.3695C3.4233 23.6412 3.58178 23.9126 3.74086 24.1836C4.19157 24.0122 4.59954 23.8082 5.01608 23.5644C5.14298 23.4903 5.26989 23.4163 5.40064 23.3399C5.53703 23.2597 5.67342 23.1795 5.81394 23.0968C5.95852 23.0121 6.10311 22.9274 6.2477 22.8428C7.40746 22.1628 8.56061 21.4716 9.71302 20.779C10.797 20.1284 11.8874 19.4897 12.9804 18.8547C13.9898 18.2678 14.9958 17.6754 16.0001 17.0798C16.0751 17.0353 16.1501 16.9908 16.2274 16.9449C16.6086 16.7188 16.9897 16.4926 17.3708 16.2664C18.1398 15.8099 18.9092 15.354 19.6786 14.8982C19.754 14.8535 19.8293 14.8089 19.907 14.7629C21.537 13.7972 23.1692 12.8352 24.8018 11.8738C25.0446 11.7308 25.2874 11.5877 25.5302 11.4446C25.7744 11.3008 26.0188 11.1573 26.2634 11.0141C26.8919 10.6453 27.5172 10.2723 28.1376 9.88984C28.4617 9.69031 28.7868 9.49252 29.112 9.29484C29.2689 9.19883 29.4253 9.102 29.5811 9.00429C31.4025 7.86318 31.4025 7.86318 32.5522 8.10888C33.2504 8.34268 33.8769 8.75695 34.5019 9.14106C34.7456 9.28865 34.9893 9.43615 35.2331 9.58357C35.4276 9.70159 35.4276 9.70159 35.626 9.822C36.2812 10.2177 36.94 10.6074 37.5988 10.997C37.8313 11.1345 38.0638 11.2722 38.2963 11.4098C39.3672 12.0439 40.4393 12.6762 41.5117 13.3078C42.5711 13.9319 43.629 14.5586 44.6867 15.1856C45.7099 15.7921 46.7338 16.3974 47.7588 17.001C48.9389 17.696 50.1175 18.3936 51.2956 19.0919C52.4375 19.7688 53.5802 20.4442 54.7244 21.1172C55.3444 21.4821 55.9637 21.8484 56.5816 22.217C56.9131 22.4148 57.2448 22.6122 57.5764 22.8097C57.7374 22.9057 57.8983 23.0018 58.0592 23.0981C58.2837 23.2326 58.5086 23.3666 58.7335 23.5004C58.8627 23.5776 58.9919 23.6548 59.125 23.7343C59.4459 23.9125 59.7608 24.0555 60.1037 24.1836C60.3748 23.7063 60.6446 23.2284 60.9142 22.7502C60.9916 22.6141 61.0689 22.478 61.1485 22.3378C61.2217 22.2078 61.2948 22.0779 61.3702 21.944C61.472 21.7638 61.472 21.7638 61.576 21.58C61.7437 21.3031 61.7437 21.3031 61.7248 21.0333C61.4264 20.821 61.4264 20.821 61.0389 20.6022C60.9669 20.5598 60.8948 20.5174 60.8205 20.4738C60.5821 20.3339 60.3429 20.1953 60.1037 20.0568C59.9372 19.9594 59.7708 19.8619 59.6044 19.7644C59.2663 19.5663 58.928 19.3687 58.5893 19.1715C57.9288 18.7867 57.2705 18.3978 56.6122 18.0091C56.3685 17.8655 56.1248 17.7219 55.8811 17.5784C55.0356 17.08 54.1911 16.5799 53.3467 16.0795C53.2712 16.0348 53.1958 15.9901 53.118 15.944C52.501 15.5784 51.8841 15.2127 51.2672 14.847C50.729 14.528 50.1908 14.209 49.6526 13.8901C49.5393 13.823 49.5393 13.823 49.4237 13.7545C48.4122 13.1552 47.4001 12.5572 46.3871 11.9606C45.2977 11.3189 44.2093 10.6755 43.1216 10.031C43.0461 9.98628 42.9706 9.94156 42.8929 9.89547C42.2759 9.52987 41.659 9.16418 41.042 8.79848C40.58 8.5246 40.118 8.25075 39.6559 7.97693C39.5038 7.88682 39.3518 7.7967 39.1997 7.70657C38.4183 7.24346 37.6366 6.78095 36.8536 6.32058C36.7263 6.24566 36.5989 6.17075 36.4677 6.09357C36.2207 5.94838 35.9736 5.80331 35.7265 5.65837C35.1282 5.30654 34.5334 4.95012 33.9432 4.58448C33.8285 4.51363 33.7137 4.44277 33.5955 4.36977C33.3797 4.23604 33.1644 4.10136 32.9498 3.96559C32.8067 3.87698 32.8067 3.87698 32.6607 3.78657C32.5779 3.73445 32.4951 3.68233 32.4097 3.62863C31.9131 3.39747 31.5828 3.53508 31.1512 3.80085ZM31.0747 10.5203C30.9568 10.5908 30.8389 10.6612 30.7174 10.7338C30.5903 10.8112 30.4633 10.8885 30.3324 10.9682C30.0595 11.1318 29.7866 11.2954 29.5136 11.459C29.3048 11.5848 29.3048 11.5848 29.0917 11.7133C28.4712 12.0861 27.8469 12.4524 27.2228 12.819C26.0297 13.5218 24.8383 14.2274 23.6471 14.9335C22.5034 15.6114 21.3586 16.2874 20.213 16.9621C19.2312 17.5405 18.2507 18.1211 17.2704 18.7021C16.1698 19.3546 15.0685 20.006 13.966 20.6553C10.2094 22.5455 10.2094 22.5455 6.85828 24.9397C6.85828 28.2664 6.85828 31.5931 6.85828 35.0206C23.4005 35.0206 39.9428 35.0206 56.9863 35.0206C56.9863 31.6939 56.9863 28.3672 56.9863 24.9397C56.0789 24.3254 56.0789 24.3254 55.1504 23.7583C55.0232 23.6846 54.896 23.6109 54.765 23.5349C54.6313 23.4579 54.4976 23.3809 54.3599 23.3015C54.1431 23.1759 53.9264 23.0503 53.7097 22.9246C53.5623 22.8391 53.415 22.7536 53.2675 22.6682C52.5594 22.2578 51.8538 21.8431 51.1489 21.4271C51.0282 21.3559 50.9075 21.2847 50.7831 21.2113C49.6403 20.5366 48.4987 19.8598 47.357 19.1831C46.411 18.6224 45.4642 18.0631 44.5166 17.505C43.4272 16.8634 42.3389 16.22 41.2511 15.5755C41.1757 15.5308 41.1002 15.486 41.0224 15.44C40.4054 15.0744 39.7885 14.7087 39.1716 14.343C38.6334 14.024 38.0952 13.705 37.557 13.3861C37.4825 13.3419 37.4079 13.2977 37.3311 13.2522C36.1318 12.5416 34.9314 11.8329 33.73 11.1259C33.6157 11.0586 33.5014 10.9913 33.3836 10.9219C33.2349 10.8345 33.2349 10.8345 33.0833 10.7453C32.8781 10.6236 32.6766 10.4957 32.4778 10.3637C31.9196 10.0586 31.5791 10.2155 31.0747 10.5203ZM3.49147 37.1628C3.49147 38.2024 3.49147 39.2419 3.49147 40.313C22.2558 40.313 41.0201 40.313 60.3531 40.313C60.3531 39.2734 60.3531 38.2339 60.3531 37.1628C41.5888 37.1628 22.8244 37.1628 3.49147 37.1628ZM6.85828 42.4552C6.85828 47.5284 6.85828 52.6016 6.85828 57.8286C9.20382 57.8286 11.5494 57.8286 13.966 57.8286C13.966 52.7554 13.966 47.6822 13.966 42.4552C11.6204 42.4552 9.2749 42.4552 6.85828 42.4552ZM16.0858 42.4552C16.0858 47.5284 16.0858 52.6016 16.0858 57.8286C19.419 57.8286 22.7521 57.8286 26.1862 57.8286C26.1862 52.7554 26.1862 47.6822 26.1862 42.4552C22.8531 42.4552 19.52 42.4552 16.0858 42.4552ZM28.3061 42.4552C28.3061 47.5284 28.3061 52.6016 28.3061 57.8286C30.6928 57.8286 33.0795 57.8286 35.5385 57.8286C35.5385 52.7554 35.5385 47.6822 35.5385 42.4552C33.1518 42.4552 30.7651 42.4552 28.3061 42.4552ZM37.6583 42.4552C37.6583 47.5284 37.6583 52.6016 37.6583 57.8286C40.9915 57.8286 44.3246 57.8286 47.7588 57.8286C47.7588 52.7554 47.7588 47.6822 47.7588 42.4552C44.4256 42.4552 41.0925 42.4552 37.6583 42.4552ZM49.8786 42.4552C49.8786 47.5284 49.8786 52.6016 49.8786 57.8286C52.2241 57.8286 54.5697 57.8286 56.9863 57.8286C56.9863 52.7554 56.9863 47.6822 56.9863 42.4552C54.6408 42.4552 52.2952 42.4552 49.8786 42.4552ZM3.49147 59.9708C3.49147 61.0103 3.5 60.9289 3.5 62C22.2643 62 41.0201 62.1282 60.3531 62.1282C60.3531 61.0886 60.3531 61.0419 60.3531 59.9708C41.5888 59.9708 22.8244 59.9708 3.49147 59.9708Z" fill="black" fill-opacity="0.2"/>
<path d="M37.6856 15.6186C37.7895 15.7032 37.8934 15.7878 38.0005 15.875C38.098 15.9506 38.1955 16.0261 38.2959 16.104C39.9619 17.4707 40.981 19.5343 41.3755 21.625C41.4261 22.1395 41.4354 22.6474 41.4302 23.1641C41.4291 23.3006 41.4279 23.4371 41.4268 23.5778C41.3697 26.2516 40.2119 28.4887 38.2974 30.3281C36.1906 32.1566 33.6177 32.8149 30.8755 32.625C28.2808 32.2878 26.0357 30.9654 24.4146 28.9219C23.1785 27.2023 22.5497 25.3243 22.5708 23.2031C22.572 23.0662 22.5731 22.9292 22.5742 22.7881C22.6287 20.2358 23.7643 17.9333 25.5938 16.1689C28.9415 13.208 34.1188 12.8456 37.6856 15.6186ZM26.375 18.5283C24.9963 20.2137 24.5893 22.0575 24.7187 24.194C24.9197 26.1283 26.0537 27.7624 27.5005 29C29.2092 30.2649 31.2023 30.7131 33.2935 30.4468C34.9303 30.123 36.2155 29.3019 37.3755 28.125C37.4472 28.0546 37.5189 27.9842 37.5928 27.9116C38.1822 27.2857 38.5322 26.5308 38.8755 25.75C38.94 25.6081 38.94 25.6081 39.0059 25.4634C39.5982 23.8921 39.3856 21.8871 38.7505 20.375C38.7096 20.2682 38.6687 20.1613 38.6265 20.0513C37.9056 18.3857 36.3781 17.1176 34.7505 16.3984C31.6624 15.201 28.56 16.1005 26.375 18.5283Z" fill="#0F0404"/>
<path d="M37.6856 15.6186C37.7895 15.7032 37.8934 15.7878 38.0005 15.875C38.098 15.9506 38.1955 16.0261 38.2959 16.104C39.9619 17.4707 40.981 19.5343 41.3755 21.625C41.4261 22.1395 41.4354 22.6474 41.4302 23.1641C41.4291 23.3006 41.4279 23.4371 41.4268 23.5778C41.3697 26.2516 40.2119 28.4887 38.2974 30.3281C36.1906 32.1566 33.6177 32.8149 30.8755 32.625C28.2808 32.2878 26.0357 30.9654 24.4146 28.9219C23.1785 27.2023 22.5497 25.3243 22.5708 23.2031C22.572 23.0662 22.5731 22.9292 22.5742 22.7881C22.6287 20.2358 23.7643 17.9333 25.5938 16.1689C28.9415 13.208 34.1188 12.8456 37.6856 15.6186ZM26.375 18.5283C24.9963 20.2137 24.5893 22.0575 24.7187 24.194C24.9197 26.1283 26.0537 27.7624 27.5005 29C29.2092 30.2649 31.2023 30.7131 33.2935 30.4468C34.9303 30.123 36.2155 29.3019 37.3755 28.125C37.4472 28.0546 37.5189 27.9842 37.5928 27.9116C38.1822 27.2857 38.5322 26.5308 38.8755 25.75C38.94 25.6081 38.94 25.6081 39.0059 25.4634C39.5982 23.8921 39.3856 21.8871 38.7505 20.375C38.7096 20.2682 38.6687 20.1613 38.6265 20.0513C37.9056 18.3857 36.3781 17.1176 34.7505 16.3984C31.6624 15.201 28.56 16.1005 26.375 18.5283Z" fill="black" fill-opacity="0.2"/>
<path d="M37.6856 15.6186C37.7895 15.7032 37.8934 15.7878 38.0005 15.875C38.098 15.9506 38.1955 16.0261 38.2959 16.104C39.9619 17.4707 40.981 19.5343 41.3755 21.625C41.4261 22.1395 41.4354 22.6474 41.4302 23.1641C41.4291 23.3006 41.4279 23.4371 41.4268 23.5778C41.3697 26.2516 40.2119 28.4887 38.2974 30.3281C36.1906 32.1566 33.6177 32.8149 30.8755 32.625C28.2808 32.2878 26.0357 30.9654 24.4146 28.9219C23.1785 27.2023 22.5497 25.3243 22.5708 23.2031C22.572 23.0662 22.5731 22.9292 22.5742 22.7881C22.6287 20.2358 23.7643 17.9333 25.5938 16.1689C28.9415 13.208 34.1188 12.8456 37.6856 15.6186ZM26.375 18.5283C24.9963 20.2137 24.5893 22.0575 24.7187 24.194C24.9197 26.1283 26.0537 27.7624 27.5005 29C29.2092 30.2649 31.2023 30.7131 33.2935 30.4468C34.9303 30.123 36.2155 29.3019 37.3755 28.125C37.4472 28.0546 37.5189 27.9842 37.5928 27.9116C38.1822 27.2857 38.5322 26.5308 38.8755 25.75C38.94 25.6081 38.94 25.6081 39.0059 25.4634C39.5982 23.8921 39.3856 21.8871 38.7505 20.375C38.7096 20.2682 38.6687 20.1613 38.6265 20.0513C37.9056 18.3857 36.3781 17.1176 34.7505 16.3984C31.6624 15.201 28.56 16.1005 26.375 18.5283Z" fill="black" fill-opacity="0.2"/>
<path d="M37.6856 15.6186C37.7895 15.7032 37.8934 15.7878 38.0005 15.875C38.098 15.9506 38.1955 16.0261 38.2959 16.104C39.9619 17.4707 40.981 19.5343 41.3755 21.625C41.4261 22.1395 41.4354 22.6474 41.4302 23.1641C41.4291 23.3006 41.4279 23.4371 41.4268 23.5778C41.3697 26.2516 40.2119 28.4887 38.2974 30.3281C36.1906 32.1566 33.6177 32.8149 30.8755 32.625C28.2808 32.2878 26.0357 30.9654 24.4146 28.9219C23.1785 27.2023 22.5497 25.3243 22.5708 23.2031C22.572 23.0662 22.5731 22.9292 22.5742 22.7881C22.6287 20.2358 23.7643 17.9333 25.5938 16.1689C28.9415 13.208 34.1188 12.8456 37.6856 15.6186ZM26.375 18.5283C24.9963 20.2137 24.5893 22.0575 24.7187 24.194C24.9197 26.1283 26.0537 27.7624 27.5005 29C29.2092 30.2649 31.2023 30.7131 33.2935 30.4468C34.9303 30.123 36.2155 29.3019 37.3755 28.125C37.4472 28.0546 37.5189 27.9842 37.5928 27.9116C38.1822 27.2857 38.5322 26.5308 38.8755 25.75C38.94 25.6081 38.94 25.6081 39.0059 25.4634C39.5982 23.8921 39.3856 21.8871 38.7505 20.375C38.7096 20.2682 38.6687 20.1613 38.6265 20.0513C37.9056 18.3857 36.3781 17.1176 34.7505 16.3984C31.6624 15.201 28.56 16.1005 26.375 18.5283Z" fill="black" fill-opacity="0.2"/>
<path d="M37.6856 15.6186C37.7895 15.7032 37.8934 15.7878 38.0005 15.875C38.098 15.9506 38.1955 16.0261 38.2959 16.104C39.9619 17.4707 40.981 19.5343 41.3755 21.625C41.4261 22.1395 41.4354 22.6474 41.4302 23.1641C41.4291 23.3006 41.4279 23.4371 41.4268 23.5778C41.3697 26.2516 40.2119 28.4887 38.2974 30.3281C36.1906 32.1566 33.6177 32.8149 30.8755 32.625C28.2808 32.2878 26.0357 30.9654 24.4146 28.9219C23.1785 27.2023 22.5497 25.3243 22.5708 23.2031C22.572 23.0662 22.5731 22.9292 22.5742 22.7881C22.6287 20.2358 23.7643 17.9333 25.5938 16.1689C28.9415 13.208 34.1188 12.8456 37.6856 15.6186ZM26.375 18.5283C24.9963 20.2137 24.5893 22.0575 24.7187 24.194C24.9197 26.1283 26.0537 27.7624 27.5005 29C29.2092 30.2649 31.2023 30.7131 33.2935 30.4468C34.9303 30.123 36.2155 29.3019 37.3755 28.125C37.4472 28.0546 37.5189 27.9842 37.5928 27.9116C38.1822 27.2857 38.5322 26.5308 38.8755 25.75C38.94 25.6081 38.94 25.6081 39.0059 25.4634C39.5982 23.8921 39.3856 21.8871 38.7505 20.375C38.7096 20.2682 38.6687 20.1613 38.6265 20.0513C37.9056 18.3857 36.3781 17.1176 34.7505 16.3984C31.6624 15.201 28.56 16.1005 26.375 18.5283Z" fill="black" fill-opacity="0.2"/>
<path d="M32.6237 17.1251C33.0044 17.4297 33.03 17.7561 33.0846 18.2189C33.0992 18.3959 33.1127 18.5729 33.1237 18.7501C33.2294 18.7759 33.3351 18.8017 33.444 18.8283C33.9823 19.0436 34.3831 19.2956 34.7487 19.7501C34.9007 20.1274 34.8939 20.3261 34.8737 20.7501C34.6862 21.1173 34.6862 21.1173 34.3737 21.3751C33.8692 21.5219 33.6139 21.5516 33.1315 21.3361C33.0464 21.2665 32.9613 21.1969 32.8737 21.1251C32.8737 21.0426 32.8737 20.9601 32.8737 20.8751C32.6941 20.865 32.5144 20.8577 32.3346 20.8517C32.2345 20.8473 32.1345 20.843 32.0314 20.8385C31.7429 20.8553 31.7429 20.8553 31.5167 21.025C31.3383 21.2536 31.3383 21.2536 31.4127 21.5861C31.4411 21.6815 31.4694 21.7769 31.4987 21.8751C31.6224 21.9011 31.7462 21.927 31.8737 21.9537C32.8862 22.1832 33.6952 22.4071 34.3737 23.2501C34.8102 23.9683 34.9803 24.659 34.8737 25.5001C34.6537 26.2173 34.3403 26.7739 33.7487 27.2501C33.3971 27.4142 33.3971 27.4142 33.1237 27.5001C33.1288 27.6316 33.134 27.7631 33.1393 27.8986C33.1243 28.3544 33.1012 28.6101 32.8737 29.0001C32.489 29.3298 32.3062 29.3771 31.7955 29.3595C31.3688 29.2489 31.2537 29.214 30.9987 28.8751C30.9347 28.5651 30.9347 28.5651 30.9127 28.2267C30.9045 28.1141 30.8963 28.0014 30.8878 27.8854C30.8831 27.7995 30.8785 27.7136 30.8737 27.6251C30.7354 27.6075 30.7354 27.6075 30.5944 27.5895C30.1978 27.487 30.017 27.3454 29.7174 27.0704C29.6317 26.9933 29.546 26.9161 29.4576 26.8366C29.1803 26.556 29.1285 26.419 29.0846 26.0236C29.1349 25.5108 29.2261 25.3298 29.6237 25.0001C30.013 24.9166 30.3588 24.9206 30.7487 25.0001C30.959 25.1643 31.1674 25.3309 31.3737 25.5001C31.7364 25.5672 31.9989 25.5431 32.3737 25.5001C32.6654 25.1525 32.6654 25.1525 32.5768 24.7892C32.5381 24.6461 32.5381 24.6461 32.4987 24.5001C32.3901 24.4789 32.2815 24.4576 32.1696 24.4357C30.9213 24.1732 30.1183 23.8047 29.3737 22.7501C29.0429 22.0586 29.0055 21.3215 29.2008 20.5836C29.5146 19.7687 30.0878 19.143 30.8737 18.7501C30.9179 18.5008 30.9179 18.5008 30.9283 18.2111C30.9705 17.7455 31.0165 17.4549 31.3737 17.1251C31.848 16.967 32.1391 17.0127 32.6237 17.1251Z" fill="#0F0404"/>
<path d="M32.6237 17.1251C33.0044 17.4297 33.03 17.7561 33.0846 18.2189C33.0992 18.3959 33.1127 18.5729 33.1237 18.7501C33.2294 18.7759 33.3351 18.8017 33.444 18.8283C33.9823 19.0436 34.3831 19.2956 34.7487 19.7501C34.9007 20.1274 34.8939 20.3261 34.8737 20.7501C34.6862 21.1173 34.6862 21.1173 34.3737 21.3751C33.8692 21.5219 33.6139 21.5516 33.1315 21.3361C33.0464 21.2665 32.9613 21.1969 32.8737 21.1251C32.8737 21.0426 32.8737 20.9601 32.8737 20.8751C32.6941 20.865 32.5144 20.8577 32.3346 20.8517C32.2345 20.8473 32.1345 20.843 32.0314 20.8385C31.7429 20.8553 31.7429 20.8553 31.5167 21.025C31.3383 21.2536 31.3383 21.2536 31.4127 21.5861C31.4411 21.6815 31.4694 21.7769 31.4987 21.8751C31.6224 21.9011 31.7462 21.927 31.8737 21.9537C32.8862 22.1832 33.6952 22.4071 34.3737 23.2501C34.8102 23.9683 34.9803 24.659 34.8737 25.5001C34.6537 26.2173 34.3403 26.7739 33.7487 27.2501C33.3971 27.4142 33.3971 27.4142 33.1237 27.5001C33.1288 27.6316 33.134 27.7631 33.1393 27.8986C33.1243 28.3544 33.1012 28.6101 32.8737 29.0001C32.489 29.3298 32.3062 29.3771 31.7955 29.3595C31.3688 29.2489 31.2537 29.214 30.9987 28.8751C30.9347 28.5651 30.9347 28.5651 30.9127 28.2267C30.9045 28.1141 30.8963 28.0014 30.8878 27.8854C30.8831 27.7995 30.8785 27.7136 30.8737 27.6251C30.7354 27.6075 30.7354 27.6075 30.5944 27.5895C30.1978 27.487 30.017 27.3454 29.7174 27.0704C29.6317 26.9933 29.546 26.9161 29.4576 26.8366C29.1803 26.556 29.1285 26.419 29.0846 26.0236C29.1349 25.5108 29.2261 25.3298 29.6237 25.0001C30.013 24.9166 30.3588 24.9206 30.7487 25.0001C30.959 25.1643 31.1674 25.3309 31.3737 25.5001C31.7364 25.5672 31.9989 25.5431 32.3737 25.5001C32.6654 25.1525 32.6654 25.1525 32.5768 24.7892C32.5381 24.6461 32.5381 24.6461 32.4987 24.5001C32.3901 24.4789 32.2815 24.4576 32.1696 24.4357C30.9213 24.1732 30.1183 23.8047 29.3737 22.7501C29.0429 22.0586 29.0055 21.3215 29.2008 20.5836C29.5146 19.7687 30.0878 19.143 30.8737 18.7501C30.9179 18.5008 30.9179 18.5008 30.9283 18.2111C30.9705 17.7455 31.0165 17.4549 31.3737 17.1251C31.848 16.967 32.1391 17.0127 32.6237 17.1251Z" fill="black" fill-opacity="0.2"/>
<path d="M32.6237 17.1251C33.0044 17.4297 33.03 17.7561 33.0846 18.2189C33.0992 18.3959 33.1127 18.5729 33.1237 18.7501C33.2294 18.7759 33.3351 18.8017 33.444 18.8283C33.9823 19.0436 34.3831 19.2956 34.7487 19.7501C34.9007 20.1274 34.8939 20.3261 34.8737 20.7501C34.6862 21.1173 34.6862 21.1173 34.3737 21.3751C33.8692 21.5219 33.6139 21.5516 33.1315 21.3361C33.0464 21.2665 32.9613 21.1969 32.8737 21.1251C32.8737 21.0426 32.8737 20.9601 32.8737 20.8751C32.6941 20.865 32.5144 20.8577 32.3346 20.8517C32.2345 20.8473 32.1345 20.843 32.0314 20.8385C31.7429 20.8553 31.7429 20.8553 31.5167 21.025C31.3383 21.2536 31.3383 21.2536 31.4127 21.5861C31.4411 21.6815 31.4694 21.7769 31.4987 21.8751C31.6224 21.9011 31.7462 21.927 31.8737 21.9537C32.8862 22.1832 33.6952 22.4071 34.3737 23.2501C34.8102 23.9683 34.9803 24.659 34.8737 25.5001C34.6537 26.2173 34.3403 26.7739 33.7487 27.2501C33.3971 27.4142 33.3971 27.4142 33.1237 27.5001C33.1288 27.6316 33.134 27.7631 33.1393 27.8986C33.1243 28.3544 33.1012 28.6101 32.8737 29.0001C32.489 29.3298 32.3062 29.3771 31.7955 29.3595C31.3688 29.2489 31.2537 29.214 30.9987 28.8751C30.9347 28.5651 30.9347 28.5651 30.9127 28.2267C30.9045 28.1141 30.8963 28.0014 30.8878 27.8854C30.8831 27.7995 30.8785 27.7136 30.8737 27.6251C30.7354 27.6075 30.7354 27.6075 30.5944 27.5895C30.1978 27.487 30.017 27.3454 29.7174 27.0704C29.6317 26.9933 29.546 26.9161 29.4576 26.8366C29.1803 26.556 29.1285 26.419 29.0846 26.0236C29.1349 25.5108 29.2261 25.3298 29.6237 25.0001C30.013 24.9166 30.3588 24.9206 30.7487 25.0001C30.959 25.1643 31.1674 25.3309 31.3737 25.5001C31.7364 25.5672 31.9989 25.5431 32.3737 25.5001C32.6654 25.1525 32.6654 25.1525 32.5768 24.7892C32.5381 24.6461 32.5381 24.6461 32.4987 24.5001C32.3901 24.4789 32.2815 24.4576 32.1696 24.4357C30.9213 24.1732 30.1183 23.8047 29.3737 22.7501C29.0429 22.0586 29.0055 21.3215 29.2008 20.5836C29.5146 19.7687 30.0878 19.143 30.8737 18.7501C30.9179 18.5008 30.9179 18.5008 30.9283 18.2111C30.9705 17.7455 31.0165 17.4549 31.3737 17.1251C31.848 16.967 32.1391 17.0127 32.6237 17.1251Z" fill="black" fill-opacity="0.2"/>
<path d="M32.6237 17.1251C33.0044 17.4297 33.03 17.7561 33.0846 18.2189C33.0992 18.3959 33.1127 18.5729 33.1237 18.7501C33.2294 18.7759 33.3351 18.8017 33.444 18.8283C33.9823 19.0436 34.3831 19.2956 34.7487 19.7501C34.9007 20.1274 34.8939 20.3261 34.8737 20.7501C34.6862 21.1173 34.6862 21.1173 34.3737 21.3751C33.8692 21.5219 33.6139 21.5516 33.1315 21.3361C33.0464 21.2665 32.9613 21.1969 32.8737 21.1251C32.8737 21.0426 32.8737 20.9601 32.8737 20.8751C32.6941 20.865 32.5144 20.8577 32.3346 20.8517C32.2345 20.8473 32.1345 20.843 32.0314 20.8385C31.7429 20.8553 31.7429 20.8553 31.5167 21.025C31.3383 21.2536 31.3383 21.2536 31.4127 21.5861C31.4411 21.6815 31.4694 21.7769 31.4987 21.8751C31.6224 21.9011 31.7462 21.927 31.8737 21.9537C32.8862 22.1832 33.6952 22.4071 34.3737 23.2501C34.8102 23.9683 34.9803 24.659 34.8737 25.5001C34.6537 26.2173 34.3403 26.7739 33.7487 27.2501C33.3971 27.4142 33.3971 27.4142 33.1237 27.5001C33.1288 27.6316 33.134 27.7631 33.1393 27.8986C33.1243 28.3544 33.1012 28.6101 32.8737 29.0001C32.489 29.3298 32.3062 29.3771 31.7955 29.3595C31.3688 29.2489 31.2537 29.214 30.9987 28.8751C30.9347 28.5651 30.9347 28.5651 30.9127 28.2267C30.9045 28.1141 30.8963 28.0014 30.8878 27.8854C30.8831 27.7995 30.8785 27.7136 30.8737 27.6251C30.7354 27.6075 30.7354 27.6075 30.5944 27.5895C30.1978 27.487 30.017 27.3454 29.7174 27.0704C29.6317 26.9933 29.546 26.9161 29.4576 26.8366C29.1803 26.556 29.1285 26.419 29.0846 26.0236C29.1349 25.5108 29.2261 25.3298 29.6237 25.0001C30.013 24.9166 30.3588 24.9206 30.7487 25.0001C30.959 25.1643 31.1674 25.3309 31.3737 25.5001C31.7364 25.5672 31.9989 25.5431 32.3737 25.5001C32.6654 25.1525 32.6654 25.1525 32.5768 24.7892C32.5381 24.6461 32.5381 24.6461 32.4987 24.5001C32.3901 24.4789 32.2815 24.4576 32.1696 24.4357C30.9213 24.1732 30.1183 23.8047 29.3737 22.7501C29.0429 22.0586 29.0055 21.3215 29.2008 20.5836C29.5146 19.7687 30.0878 19.143 30.8737 18.7501C30.9179 18.5008 30.9179 18.5008 30.9283 18.2111C30.9705 17.7455 31.0165 17.4549 31.3737 17.1251C31.848 16.967 32.1391 17.0127 32.6237 17.1251Z" fill="black" fill-opacity="0.2"/>
<path d="M32.6237 17.1251C33.0044 17.4297 33.03 17.7561 33.0846 18.2189C33.0992 18.3959 33.1127 18.5729 33.1237 18.7501C33.2294 18.7759 33.3351 18.8017 33.444 18.8283C33.9823 19.0436 34.3831 19.2956 34.7487 19.7501C34.9007 20.1274 34.8939 20.3261 34.8737 20.7501C34.6862 21.1173 34.6862 21.1173 34.3737 21.3751C33.8692 21.5219 33.6139 21.5516 33.1315 21.3361C33.0464 21.2665 32.9613 21.1969 32.8737 21.1251C32.8737 21.0426 32.8737 20.9601 32.8737 20.8751C32.6941 20.865 32.5144 20.8577 32.3346 20.8517C32.2345 20.8473 32.1345 20.843 32.0314 20.8385C31.7429 20.8553 31.7429 20.8553 31.5167 21.025C31.3383 21.2536 31.3383 21.2536 31.4127 21.5861C31.4411 21.6815 31.4694 21.7769 31.4987 21.8751C31.6224 21.9011 31.7462 21.927 31.8737 21.9537C32.8862 22.1832 33.6952 22.4071 34.3737 23.2501C34.8102 23.9683 34.9803 24.659 34.8737 25.5001C34.6537 26.2173 34.3403 26.7739 33.7487 27.2501C33.3971 27.4142 33.3971 27.4142 33.1237 27.5001C33.1288 27.6316 33.134 27.7631 33.1393 27.8986C33.1243 28.3544 33.1012 28.6101 32.8737 29.0001C32.489 29.3298 32.3062 29.3771 31.7955 29.3595C31.3688 29.2489 31.2537 29.214 30.9987 28.8751C30.9347 28.5651 30.9347 28.5651 30.9127 28.2267C30.9045 28.1141 30.8963 28.0014 30.8878 27.8854C30.8831 27.7995 30.8785 27.7136 30.8737 27.6251C30.7354 27.6075 30.7354 27.6075 30.5944 27.5895C30.1978 27.487 30.017 27.3454 29.7174 27.0704C29.6317 26.9933 29.546 26.9161 29.4576 26.8366C29.1803 26.556 29.1285 26.419 29.0846 26.0236C29.1349 25.5108 29.2261 25.3298 29.6237 25.0001C30.013 24.9166 30.3588 24.9206 30.7487 25.0001C30.959 25.1643 31.1674 25.3309 31.3737 25.5001C31.7364 25.5672 31.9989 25.5431 32.3737 25.5001C32.6654 25.1525 32.6654 25.1525 32.5768 24.7892C32.5381 24.6461 32.5381 24.6461 32.4987 24.5001C32.3901 24.4789 32.2815 24.4576 32.1696 24.4357C30.9213 24.1732 30.1183 23.8047 29.3737 22.7501C29.0429 22.0586 29.0055 21.3215 29.2008 20.5836C29.5146 19.7687 30.0878 19.143 30.8737 18.7501C30.9179 18.5008 30.9179 18.5008 30.9283 18.2111C30.9705 17.7455 31.0165 17.4549 31.3737 17.1251C31.848 16.967 32.1391 17.0127 32.6237 17.1251Z" fill="black" fill-opacity="0.2"/>
<path d="M53.2501 45.1758C53.7706 45.2002 54.1264 45.2214 54.5001 45.625C54.632 46.0209 54.6425 46.3052 54.6452 46.7211C54.6464 46.8692 54.6476 47.0174 54.6489 47.1699C54.6494 47.3301 54.6499 47.4903 54.6505 47.6553C54.6512 47.8197 54.6519 47.9842 54.6526 48.1536C54.6539 48.5019 54.6547 48.8501 54.6551 49.1983C54.6558 49.6437 54.6588 50.0891 54.6624 50.5345C54.6652 50.9601 54.6655 51.3858 54.6661 51.8115C54.6676 51.9712 54.6692 52.1308 54.6708 52.2953C54.6704 52.4442 54.67 52.5931 54.6696 52.7465C54.6701 52.8772 54.6705 53.008 54.671 53.1426C54.6179 53.5558 54.4951 53.7909 54.2501 54.125C53.8577 54.3212 53.5578 54.294 53.1251 54.25C52.7913 54.0446 52.6769 53.962 52.5001 53.625C52.4058 53.0474 52.4156 52.4747 52.4215 51.8906C52.4214 51.7193 52.4211 51.5479 52.4206 51.3765C52.4202 51.018 52.422 50.6595 52.4255 50.301C52.4297 49.8424 52.429 49.384 52.4266 48.9254C52.4253 48.5717 52.4264 48.2181 52.4283 47.8644C52.4293 47.6134 52.4283 47.3624 52.4274 47.1114C52.4294 46.9583 52.4314 46.8052 52.4334 46.6475C52.4342 46.5131 52.4349 46.3787 52.4357 46.2402C52.5228 45.7459 52.746 45.3254 53.2501 45.1758Z" fill="#0F0404"/>
<path d="M53.2501 45.1758C53.7706 45.2002 54.1264 45.2214 54.5001 45.625C54.632 46.0209 54.6425 46.3052 54.6452 46.7211C54.6464 46.8692 54.6476 47.0174 54.6489 47.1699C54.6494 47.3301 54.6499 47.4903 54.6505 47.6553C54.6512 47.8197 54.6519 47.9842 54.6526 48.1536C54.6539 48.5019 54.6547 48.8501 54.6551 49.1983C54.6558 49.6437 54.6588 50.0891 54.6624 50.5345C54.6652 50.9601 54.6655 51.3858 54.6661 51.8115C54.6676 51.9712 54.6692 52.1308 54.6708 52.2953C54.6704 52.4442 54.67 52.5931 54.6696 52.7465C54.6701 52.8772 54.6705 53.008 54.671 53.1426C54.6179 53.5558 54.4951 53.7909 54.2501 54.125C53.8577 54.3212 53.5578 54.294 53.1251 54.25C52.7913 54.0446 52.6769 53.962 52.5001 53.625C52.4058 53.0474 52.4156 52.4747 52.4215 51.8906C52.4214 51.7193 52.4211 51.5479 52.4206 51.3765C52.4202 51.018 52.422 50.6595 52.4255 50.301C52.4297 49.8424 52.429 49.384 52.4266 48.9254C52.4253 48.5717 52.4264 48.2181 52.4283 47.8644C52.4293 47.6134 52.4283 47.3624 52.4274 47.1114C52.4294 46.9583 52.4314 46.8052 52.4334 46.6475C52.4342 46.5131 52.4349 46.3787 52.4357 46.2402C52.5228 45.7459 52.746 45.3254 53.2501 45.1758Z" fill="black" fill-opacity="0.2"/>
<path d="M53.2501 45.1758C53.7706 45.2002 54.1264 45.2214 54.5001 45.625C54.632 46.0209 54.6425 46.3052 54.6452 46.7211C54.6464 46.8692 54.6476 47.0174 54.6489 47.1699C54.6494 47.3301 54.6499 47.4903 54.6505 47.6553C54.6512 47.8197 54.6519 47.9842 54.6526 48.1536C54.6539 48.5019 54.6547 48.8501 54.6551 49.1983C54.6558 49.6437 54.6588 50.0891 54.6624 50.5345C54.6652 50.9601 54.6655 51.3858 54.6661 51.8115C54.6676 51.9712 54.6692 52.1308 54.6708 52.2953C54.6704 52.4442 54.67 52.5931 54.6696 52.7465C54.6701 52.8772 54.6705 53.008 54.671 53.1426C54.6179 53.5558 54.4951 53.7909 54.2501 54.125C53.8577 54.3212 53.5578 54.294 53.1251 54.25C52.7913 54.0446 52.6769 53.962 52.5001 53.625C52.4058 53.0474 52.4156 52.4747 52.4215 51.8906C52.4214 51.7193 52.4211 51.5479 52.4206 51.3765C52.4202 51.018 52.422 50.6595 52.4255 50.301C52.4297 49.8424 52.429 49.384 52.4266 48.9254C52.4253 48.5717 52.4264 48.2181 52.4283 47.8644C52.4293 47.6134 52.4283 47.3624 52.4274 47.1114C52.4294 46.9583 52.4314 46.8052 52.4334 46.6475C52.4342 46.5131 52.4349 46.3787 52.4357 46.2402C52.5228 45.7459 52.746 45.3254 53.2501 45.1758Z" fill="black" fill-opacity="0.2"/>
<path d="M53.2501 45.1758C53.7706 45.2002 54.1264 45.2214 54.5001 45.625C54.632 46.0209 54.6425 46.3052 54.6452 46.7211C54.6464 46.8692 54.6476 47.0174 54.6489 47.1699C54.6494 47.3301 54.6499 47.4903 54.6505 47.6553C54.6512 47.8197 54.6519 47.9842 54.6526 48.1536C54.6539 48.5019 54.6547 48.8501 54.6551 49.1983C54.6558 49.6437 54.6588 50.0891 54.6624 50.5345C54.6652 50.9601 54.6655 51.3858 54.6661 51.8115C54.6676 51.9712 54.6692 52.1308 54.6708 52.2953C54.6704 52.4442 54.67 52.5931 54.6696 52.7465C54.6701 52.8772 54.6705 53.008 54.671 53.1426C54.6179 53.5558 54.4951 53.7909 54.2501 54.125C53.8577 54.3212 53.5578 54.294 53.1251 54.25C52.7913 54.0446 52.6769 53.962 52.5001 53.625C52.4058 53.0474 52.4156 52.4747 52.4215 51.8906C52.4214 51.7193 52.4211 51.5479 52.4206 51.3765C52.4202 51.018 52.422 50.6595 52.4255 50.301C52.4297 49.8424 52.429 49.384 52.4266 48.9254C52.4253 48.5717 52.4264 48.2181 52.4283 47.8644C52.4293 47.6134 52.4283 47.3624 52.4274 47.1114C52.4294 46.9583 52.4314 46.8052 52.4334 46.6475C52.4342 46.5131 52.4349 46.3787 52.4357 46.2402C52.5228 45.7459 52.746 45.3254 53.2501 45.1758Z" fill="black" fill-opacity="0.2"/>
<path d="M53.2501 45.1758C53.7706 45.2002 54.1264 45.2214 54.5001 45.625C54.632 46.0209 54.6425 46.3052 54.6452 46.7211C54.6464 46.8692 54.6476 47.0174 54.6489 47.1699C54.6494 47.3301 54.6499 47.4903 54.6505 47.6553C54.6512 47.8197 54.6519 47.9842 54.6526 48.1536C54.6539 48.5019 54.6547 48.8501 54.6551 49.1983C54.6558 49.6437 54.6588 50.0891 54.6624 50.5345C54.6652 50.9601 54.6655 51.3858 54.6661 51.8115C54.6676 51.9712 54.6692 52.1308 54.6708 52.2953C54.6704 52.4442 54.67 52.5931 54.6696 52.7465C54.6701 52.8772 54.6705 53.008 54.671 53.1426C54.6179 53.5558 54.4951 53.7909 54.2501 54.125C53.8577 54.3212 53.5578 54.294 53.1251 54.25C52.7913 54.0446 52.6769 53.962 52.5001 53.625C52.4058 53.0474 52.4156 52.4747 52.4215 51.8906C52.4214 51.7193 52.4211 51.5479 52.4206 51.3765C52.4202 51.018 52.422 50.6595 52.4255 50.301C52.4297 49.8424 52.429 49.384 52.4266 48.9254C52.4253 48.5717 52.4264 48.2181 52.4283 47.8644C52.4293 47.6134 52.4283 47.3624 52.4274 47.1114C52.4294 46.9583 52.4314 46.8052 52.4334 46.6475C52.4342 46.5131 52.4349 46.3787 52.4357 46.2402C52.5228 45.7459 52.746 45.3254 53.2501 45.1758Z" fill="black" fill-opacity="0.2"/>
<path d="M10.9991 45.2498C11.4488 45.7104 11.5621 46.0088 11.5657 46.6473C11.5677 46.8004 11.5697 46.9535 11.5717 47.1112C11.5708 47.3577 11.5708 47.3577 11.5699 47.6092C11.5705 47.7806 11.5713 47.9519 11.5722 48.1233C11.5735 48.4818 11.5729 48.8403 11.5711 49.1988C11.569 49.6574 11.5719 50.1159 11.5763 50.5745C11.579 50.9281 11.5789 51.2818 11.5778 51.6355C11.5777 51.8865 11.5802 52.1375 11.5827 52.3884C11.5697 53.6538 11.5697 53.6538 11.2095 54.0413C10.7673 54.3162 10.5106 54.3335 9.99906 54.2498C9.70344 54.0164 9.54152 53.8348 9.37406 53.4998C9.36076 53.2645 9.35546 53.0286 9.35392 52.7929C9.35272 52.6448 9.35152 52.4967 9.35028 52.344C9.34975 52.1832 9.34922 52.0224 9.34867 51.8568C9.34796 51.6921 9.34725 51.5275 9.34651 51.3579C9.3452 51.0089 9.34447 50.6599 9.34403 50.311C9.34335 49.8646 9.34035 49.4182 9.33679 48.9718C9.33389 48.5455 9.33365 48.1191 9.33305 47.6927C9.3315 47.5327 9.32996 47.3726 9.32837 47.2077C9.32874 47.0584 9.32912 46.9091 9.32951 46.7553C9.32905 46.6242 9.32859 46.4931 9.32812 46.358C9.38118 45.9443 9.50373 45.7093 9.74906 45.3748C10.1408 45.179 10.578 45.1434 10.9991 45.2498Z" fill="#0F0404"/>
<path d="M10.9991 45.2498C11.4488 45.7104 11.5621 46.0088 11.5657 46.6473C11.5677 46.8004 11.5697 46.9535 11.5717 47.1112C11.5708 47.3577 11.5708 47.3577 11.5699 47.6092C11.5705 47.7806 11.5713 47.9519 11.5722 48.1233C11.5735 48.4818 11.5729 48.8403 11.5711 49.1988C11.569 49.6574 11.5719 50.1159 11.5763 50.5745C11.579 50.9281 11.5789 51.2818 11.5778 51.6355C11.5777 51.8865 11.5802 52.1375 11.5827 52.3884C11.5697 53.6538 11.5697 53.6538 11.2095 54.0413C10.7673 54.3162 10.5106 54.3335 9.99906 54.2498C9.70344 54.0164 9.54152 53.8348 9.37406 53.4998C9.36076 53.2645 9.35546 53.0286 9.35392 52.7929C9.35272 52.6448 9.35152 52.4967 9.35028 52.344C9.34975 52.1832 9.34922 52.0224 9.34867 51.8568C9.34796 51.6921 9.34725 51.5275 9.34651 51.3579C9.3452 51.0089 9.34447 50.6599 9.34403 50.311C9.34335 49.8646 9.34035 49.4182 9.33679 48.9718C9.33389 48.5455 9.33365 48.1191 9.33305 47.6927C9.3315 47.5327 9.32996 47.3726 9.32837 47.2077C9.32874 47.0584 9.32912 46.9091 9.32951 46.7553C9.32905 46.6242 9.32859 46.4931 9.32812 46.358C9.38118 45.9443 9.50373 45.7093 9.74906 45.3748C10.1408 45.179 10.578 45.1434 10.9991 45.2498Z" fill="black" fill-opacity="0.2"/>
<path d="M10.9991 45.2498C11.4488 45.7104 11.5621 46.0088 11.5657 46.6473C11.5677 46.8004 11.5697 46.9535 11.5717 47.1112C11.5708 47.3577 11.5708 47.3577 11.5699 47.6092C11.5705 47.7806 11.5713 47.9519 11.5722 48.1233C11.5735 48.4818 11.5729 48.8403 11.5711 49.1988C11.569 49.6574 11.5719 50.1159 11.5763 50.5745C11.579 50.9281 11.5789 51.2818 11.5778 51.6355C11.5777 51.8865 11.5802 52.1375 11.5827 52.3884C11.5697 53.6538 11.5697 53.6538 11.2095 54.0413C10.7673 54.3162 10.5106 54.3335 9.99906 54.2498C9.70344 54.0164 9.54152 53.8348 9.37406 53.4998C9.36076 53.2645 9.35546 53.0286 9.35392 52.7929C9.35272 52.6448 9.35152 52.4967 9.35028 52.344C9.34975 52.1832 9.34922 52.0224 9.34867 51.8568C9.34796 51.6921 9.34725 51.5275 9.34651 51.3579C9.3452 51.0089 9.34447 50.6599 9.34403 50.311C9.34335 49.8646 9.34035 49.4182 9.33679 48.9718C9.33389 48.5455 9.33365 48.1191 9.33305 47.6927C9.3315 47.5327 9.32996 47.3726 9.32837 47.2077C9.32874 47.0584 9.32912 46.9091 9.32951 46.7553C9.32905 46.6242 9.32859 46.4931 9.32812 46.358C9.38118 45.9443 9.50373 45.7093 9.74906 45.3748C10.1408 45.179 10.578 45.1434 10.9991 45.2498Z" fill="black" fill-opacity="0.2"/>
<path d="M10.9991 45.2498C11.4488 45.7104 11.5621 46.0088 11.5657 46.6473C11.5677 46.8004 11.5697 46.9535 11.5717 47.1112C11.5708 47.3577 11.5708 47.3577 11.5699 47.6092C11.5705 47.7806 11.5713 47.9519 11.5722 48.1233C11.5735 48.4818 11.5729 48.8403 11.5711 49.1988C11.569 49.6574 11.5719 50.1159 11.5763 50.5745C11.579 50.9281 11.5789 51.2818 11.5778 51.6355C11.5777 51.8865 11.5802 52.1375 11.5827 52.3884C11.5697 53.6538 11.5697 53.6538 11.2095 54.0413C10.7673 54.3162 10.5106 54.3335 9.99906 54.2498C9.70344 54.0164 9.54152 53.8348 9.37406 53.4998C9.36076 53.2645 9.35546 53.0286 9.35392 52.7929C9.35272 52.6448 9.35152 52.4967 9.35028 52.344C9.34975 52.1832 9.34922 52.0224 9.34867 51.8568C9.34796 51.6921 9.34725 51.5275 9.34651 51.3579C9.3452 51.0089 9.34447 50.6599 9.34403 50.311C9.34335 49.8646 9.34035 49.4182 9.33679 48.9718C9.33389 48.5455 9.33365 48.1191 9.33305 47.6927C9.3315 47.5327 9.32996 47.3726 9.32837 47.2077C9.32874 47.0584 9.32912 46.9091 9.32951 46.7553C9.32905 46.6242 9.32859 46.4931 9.32812 46.358C9.38118 45.9443 9.50373 45.7093 9.74906 45.3748C10.1408 45.179 10.578 45.1434 10.9991 45.2498Z" fill="black" fill-opacity="0.2"/>
<path d="M10.9991 45.2498C11.4488 45.7104 11.5621 46.0088 11.5657 46.6473C11.5677 46.8004 11.5697 46.9535 11.5717 47.1112C11.5708 47.3577 11.5708 47.3577 11.5699 47.6092C11.5705 47.7806 11.5713 47.9519 11.5722 48.1233C11.5735 48.4818 11.5729 48.8403 11.5711 49.1988C11.569 49.6574 11.5719 50.1159 11.5763 50.5745C11.579 50.9281 11.5789 51.2818 11.5778 51.6355C11.5777 51.8865 11.5802 52.1375 11.5827 52.3884C11.5697 53.6538 11.5697 53.6538 11.2095 54.0413C10.7673 54.3162 10.5106 54.3335 9.99906 54.2498C9.70344 54.0164 9.54152 53.8348 9.37406 53.4998C9.36076 53.2645 9.35546 53.0286 9.35392 52.7929C9.35272 52.6448 9.35152 52.4967 9.35028 52.344C9.34975 52.1832 9.34922 52.0224 9.34867 51.8568C9.34796 51.6921 9.34725 51.5275 9.34651 51.3579C9.3452 51.0089 9.34447 50.6599 9.34403 50.311C9.34335 49.8646 9.34035 49.4182 9.33679 48.9718C9.33389 48.5455 9.33365 48.1191 9.33305 47.6927C9.3315 47.5327 9.32996 47.3726 9.32837 47.2077C9.32874 47.0584 9.32912 46.9091 9.32951 46.7553C9.32905 46.6242 9.32859 46.4931 9.32812 46.358C9.38118 45.9443 9.50373 45.7093 9.74906 45.3748C10.1408 45.179 10.578 45.1434 10.9991 45.2498Z" fill="black" fill-opacity="0.2"/>
<path d="M32.2638 45.2013C32.6351 45.2775 32.7894 45.4446 33.0016 45.7501C33.1325 46.1494 33.1431 46.5211 33.1448 46.9396C33.1456 47.0776 33.1464 47.2157 33.1472 47.358C33.1473 47.5066 33.1475 47.6552 33.1476 47.8082C33.148 47.9614 33.1484 48.1146 33.1489 48.2724C33.1495 48.5964 33.1498 48.9203 33.1498 49.2442C33.15 49.74 33.1523 50.2356 33.1547 50.7313C33.155 51.046 33.1553 51.3607 33.1554 51.6754C33.1563 51.8237 33.1572 51.9721 33.1581 52.1249C33.1577 52.2634 33.1574 52.4019 33.157 52.5445C33.1571 52.666 33.1573 52.7874 33.1575 52.9126C33.1133 53.3953 32.9963 53.7512 32.6579 54.1017C32.2792 54.3015 32.0499 54.3106 31.6266 54.2501C31.2951 54.0457 31.2951 54.0457 31.0016 53.7501C30.9231 53.3897 30.9231 53.3897 30.9227 52.9669C30.9211 52.8084 30.9196 52.6499 30.918 52.4866C30.9195 52.314 30.9212 52.1414 30.923 51.9689C30.9229 51.7914 30.9226 51.614 30.9221 51.4365C30.9217 51.065 30.9236 50.6935 30.927 50.3219C30.9312 49.8461 30.9305 49.3704 30.9282 48.8945C30.9268 48.5282 30.928 48.1619 30.9298 47.7956C30.9305 47.6201 30.9304 47.4447 30.9296 47.2693C30.929 47.024 30.9319 46.7786 30.9349 46.5333C30.9357 46.3938 30.9365 46.2543 30.9373 46.1106C31.0746 45.3411 31.5596 45.1646 32.2638 45.2013Z" fill="#0F0404"/>
<path d="M32.2638 45.2013C32.6351 45.2775 32.7894 45.4446 33.0016 45.7501C33.1325 46.1494 33.1431 46.5211 33.1448 46.9396C33.1456 47.0776 33.1464 47.2157 33.1472 47.358C33.1473 47.5066 33.1475 47.6552 33.1476 47.8082C33.148 47.9614 33.1484 48.1146 33.1489 48.2724C33.1495 48.5964 33.1498 48.9203 33.1498 49.2442C33.15 49.74 33.1523 50.2356 33.1547 50.7313C33.155 51.046 33.1553 51.3607 33.1554 51.6754C33.1563 51.8237 33.1572 51.9721 33.1581 52.1249C33.1577 52.2634 33.1574 52.4019 33.157 52.5445C33.1571 52.666 33.1573 52.7874 33.1575 52.9126C33.1133 53.3953 32.9963 53.7512 32.6579 54.1017C32.2792 54.3015 32.0499 54.3106 31.6266 54.2501C31.2951 54.0457 31.2951 54.0457 31.0016 53.7501C30.9231 53.3897 30.9231 53.3897 30.9227 52.9669C30.9211 52.8084 30.9196 52.6499 30.918 52.4866C30.9195 52.314 30.9212 52.1414 30.923 51.9689C30.9229 51.7914 30.9226 51.614 30.9221 51.4365C30.9217 51.065 30.9236 50.6935 30.927 50.3219C30.9312 49.8461 30.9305 49.3704 30.9282 48.8945C30.9268 48.5282 30.928 48.1619 30.9298 47.7956C30.9305 47.6201 30.9304 47.4447 30.9296 47.2693C30.929 47.024 30.9319 46.7786 30.9349 46.5333C30.9357 46.3938 30.9365 46.2543 30.9373 46.1106C31.0746 45.3411 31.5596 45.1646 32.2638 45.2013Z" fill="black" fill-opacity="0.2"/>
<path d="M32.2638 45.2013C32.6351 45.2775 32.7894 45.4446 33.0016 45.7501C33.1325 46.1494 33.1431 46.5211 33.1448 46.9396C33.1456 47.0776 33.1464 47.2157 33.1472 47.358C33.1473 47.5066 33.1475 47.6552 33.1476 47.8082C33.148 47.9614 33.1484 48.1146 33.1489 48.2724C33.1495 48.5964 33.1498 48.9203 33.1498 49.2442C33.15 49.74 33.1523 50.2356 33.1547 50.7313C33.155 51.046 33.1553 51.3607 33.1554 51.6754C33.1563 51.8237 33.1572 51.9721 33.1581 52.1249C33.1577 52.2634 33.1574 52.4019 33.157 52.5445C33.1571 52.666 33.1573 52.7874 33.1575 52.9126C33.1133 53.3953 32.9963 53.7512 32.6579 54.1017C32.2792 54.3015 32.0499 54.3106 31.6266 54.2501C31.2951 54.0457 31.2951 54.0457 31.0016 53.7501C30.9231 53.3897 30.9231 53.3897 30.9227 52.9669C30.9211 52.8084 30.9196 52.6499 30.918 52.4866C30.9195 52.314 30.9212 52.1414 30.923 51.9689C30.9229 51.7914 30.9226 51.614 30.9221 51.4365C30.9217 51.065 30.9236 50.6935 30.927 50.3219C30.9312 49.8461 30.9305 49.3704 30.9282 48.8945C30.9268 48.5282 30.928 48.1619 30.9298 47.7956C30.9305 47.6201 30.9304 47.4447 30.9296 47.2693C30.929 47.024 30.9319 46.7786 30.9349 46.5333C30.9357 46.3938 30.9365 46.2543 30.9373 46.1106C31.0746 45.3411 31.5596 45.1646 32.2638 45.2013Z" fill="black" fill-opacity="0.2"/>
<path d="M32.2638 45.2013C32.6351 45.2775 32.7894 45.4446 33.0016 45.7501C33.1325 46.1494 33.1431 46.5211 33.1448 46.9396C33.1456 47.0776 33.1464 47.2157 33.1472 47.358C33.1473 47.5066 33.1475 47.6552 33.1476 47.8082C33.148 47.9614 33.1484 48.1146 33.1489 48.2724C33.1495 48.5964 33.1498 48.9203 33.1498 49.2442C33.15 49.74 33.1523 50.2356 33.1547 50.7313C33.155 51.046 33.1553 51.3607 33.1554 51.6754C33.1563 51.8237 33.1572 51.9721 33.1581 52.1249C33.1577 52.2634 33.1574 52.4019 33.157 52.5445C33.1571 52.666 33.1573 52.7874 33.1575 52.9126C33.1133 53.3953 32.9963 53.7512 32.6579 54.1017C32.2792 54.3015 32.0499 54.3106 31.6266 54.2501C31.2951 54.0457 31.2951 54.0457 31.0016 53.7501C30.9231 53.3897 30.9231 53.3897 30.9227 52.9669C30.9211 52.8084 30.9196 52.6499 30.918 52.4866C30.9195 52.314 30.9212 52.1414 30.923 51.9689C30.9229 51.7914 30.9226 51.614 30.9221 51.4365C30.9217 51.065 30.9236 50.6935 30.927 50.3219C30.9312 49.8461 30.9305 49.3704 30.9282 48.8945C30.9268 48.5282 30.928 48.1619 30.9298 47.7956C30.9305 47.6201 30.9304 47.4447 30.9296 47.2693C30.929 47.024 30.9319 46.7786 30.9349 46.5333C30.9357 46.3938 30.9365 46.2543 30.9373 46.1106C31.0746 45.3411 31.5596 45.1646 32.2638 45.2013Z" fill="black" fill-opacity="0.2"/>
<path d="M32.2638 45.2013C32.6351 45.2775 32.7894 45.4446 33.0016 45.7501C33.1325 46.1494 33.1431 46.5211 33.1448 46.9396C33.1456 47.0776 33.1464 47.2157 33.1472 47.358C33.1473 47.5066 33.1475 47.6552 33.1476 47.8082C33.148 47.9614 33.1484 48.1146 33.1489 48.2724C33.1495 48.5964 33.1498 48.9203 33.1498 49.2442C33.15 49.74 33.1523 50.2356 33.1547 50.7313C33.155 51.046 33.1553 51.3607 33.1554 51.6754C33.1563 51.8237 33.1572 51.9721 33.1581 52.1249C33.1577 52.2634 33.1574 52.4019 33.157 52.5445C33.1571 52.666 33.1573 52.7874 33.1575 52.9126C33.1133 53.3953 32.9963 53.7512 32.6579 54.1017C32.2792 54.3015 32.0499 54.3106 31.6266 54.2501C31.2951 54.0457 31.2951 54.0457 31.0016 53.7501C30.9231 53.3897 30.9231 53.3897 30.9227 52.9669C30.9211 52.8084 30.9196 52.6499 30.918 52.4866C30.9195 52.314 30.9212 52.1414 30.923 51.9689C30.9229 51.7914 30.9226 51.614 30.9221 51.4365C30.9217 51.065 30.9236 50.6935 30.927 50.3219C30.9312 49.8461 30.9305 49.3704 30.9282 48.8945C30.9268 48.5282 30.928 48.1619 30.9298 47.7956C30.9305 47.6201 30.9304 47.4447 30.9296 47.2693C30.929 47.024 30.9319 46.7786 30.9349 46.5333C30.9357 46.3938 30.9365 46.2543 30.9373 46.1106C31.0746 45.3411 31.5596 45.1646 32.2638 45.2013Z" fill="black" fill-opacity="0.2"/>
</g>
<defs>
<clipPath id="clip0_28060_15378">
<rect width="64" height="64" fill="white"/>
</clipPath>
</defs>
</svg>
