<svg width="16" height="16" viewBox="0 0 16 16" fill="none" xmlns="http://www.w3.org/2000/svg">
<g clip-path="url(#clip0_28317_4170)">
<path d="M8.4852 0.511143C8.50907 0.52492 8.53293 0.538697 8.55752 0.552891C8.63566 0.598226 8.71342 0.64418 8.7911 0.690315C8.8177 0.706067 8.84429 0.721818 8.8717 0.738046C9.01399 0.82245 9.15597 0.907357 9.2978 0.992545C9.47711 1.10016 9.65715 1.20646 9.83738 1.31249C10.1143 1.47549 10.391 1.63893 10.6674 1.80276C10.6957 1.81951 10.6957 1.81951 10.7245 1.83661C10.8788 1.92802 11.033 2.01945 11.1873 2.11089C11.3218 2.19064 11.4564 2.27039 11.5909 2.35012C11.6193 2.3669 11.6193 2.3669 11.6481 2.38402C11.9311 2.55169 12.2144 2.71889 12.4978 2.88581C12.7626 3.04183 13.0271 3.1985 13.2915 3.35524C13.5473 3.50686 13.8033 3.65818 14.0595 3.80909C14.1511 3.86304 14.2426 3.917 14.3341 3.97097C14.4047 4.01254 14.4752 4.0541 14.5458 4.09563C14.7769 4.23169 15.0076 4.36829 15.2379 4.50575C15.2999 4.54266 15.362 4.57942 15.4241 4.61595C15.495 4.65759 15.5654 4.69984 15.6358 4.74236C15.6647 4.75903 15.6647 4.75903 15.6942 4.77604C15.8574 4.87657 15.9334 4.99952 15.9843 5.185C16.001 5.51991 15.8178 5.77205 15.6494 6.04578C15.6281 6.08204 15.6068 6.11834 15.5856 6.15469C15.4733 6.34218 15.3606 6.49939 15.1506 6.58133C15.0804 6.58859 15.0804 6.58859 15.0084 6.58724C14.9846 6.58703 14.9607 6.58683 14.9362 6.58662C14.8701 6.58133 14.8701 6.58133 14.7765 6.54983C14.7765 7.27754 14.7765 8.00526 14.7765 8.75502C14.9514 8.75502 15.1263 8.75502 15.3065 8.75502C15.5241 8.86495 15.5241 8.86495 15.5871 8.97554C15.6255 9.10558 15.6239 9.23441 15.6246 9.36908C15.6247 9.39502 15.6249 9.42097 15.6251 9.4477C15.6254 9.50251 15.6256 9.55732 15.6257 9.61213C15.626 9.69565 15.627 9.77915 15.628 9.86266C15.6282 9.91603 15.6283 9.9694 15.6285 10.0228C15.6289 10.0476 15.6292 10.0724 15.6296 10.098C15.629 10.2509 15.6107 10.3566 15.5247 10.4877C15.3688 10.6137 15.3688 10.6137 14.7765 10.6137C14.7765 11.882 14.7765 13.1503 14.7765 14.457C14.972 14.457 15.1736 14.457 15.375 14.457C15.5 14.457 15.5944 14.4941 15.625 14.6249C15.6313 14.7158 15.6277 14.9507 15.6276 15.0415C15.6277 15.0674 15.6279 15.0932 15.628 15.1198C15.6282 15.1743 15.6282 15.2288 15.6281 15.2833C15.628 15.3662 15.6287 15.449 15.6295 15.5319C15.6296 15.585 15.6296 15.6382 15.6296 15.6913C15.6293 15.666 15.6298 15.7158 15.6296 15.6913C15.625 15.9999 15.375 15.9999 15.25 15.9999C15.125 15.9999 15.2004 16.0004 15 15.9999C15.0254 15.9998 14.9754 15.9999 15 15.9999C14.917 16.0001 14.708 15.9999 14.625 15.9999C14.6849 15.9998 14.5651 16 14.625 15.9999C14.4601 16.0001 14.1649 15.9999 14 15.9999C13.8223 15.9999 13.5527 15.9997 13.375 15.9999C12.9862 16.0003 12.6388 15.9997 12.25 15.9999C12.4926 15.9997 12.0074 16 12.25 15.9999C11.5785 16.0003 10.1715 15.9998 9.5 15.9999C9.58733 15.9999 9.41267 15.9999 9.5 15.9999C9.76198 15.9998 9.89257 15.9998 9.5 15.9999C10.2022 15.9991 8.79777 16 9.5 15.9999C8.75767 16.0007 5.36734 15.9998 4.625 15.9999C5.0297 15.9993 4.2203 15.9999 4.625 15.9999C4.96956 16.0001 4.28044 16.0004 4.625 15.9999C4.44914 15.9998 2.05086 15.9994 1.875 15.9999C2.03593 16.0003 1.71407 16.0003 1.875 15.9999C2.04983 15.9996 1.81672 15.9998 1.875 15.9999C1.95413 16.0003 1.79587 16.0002 1.875 15.9999C1.84095 16.0002 1.00511 15.9995 0.970375 15.9999C0.81171 15.9982 0.75 15.9999 0.625 15.9999C0.5 15.9999 0.336036 15.761 0.336036 15.6259C0.336219 15.6527 0.335858 15.6 0.336036 15.6259C0.335742 15.5709 0.335538 15.5159 0.335418 15.4609C0.335116 15.3771 0.334148 15.2934 0.333165 15.2096C0.332961 15.1561 0.332798 15.1026 0.332678 15.0491C0.332293 15.0241 0.331908 14.9992 0.331511 14.9736C0.332118 14.8203 0.350198 14.7143 0.436429 14.583C0.5923 14.457 0.5923 14.457 1.18461 14.457C1.18461 13.1887 1.18461 11.9204 1.18461 10.6137C0.989147 10.6137 0.793685 10.6137 0.5923 10.6137C0.373515 10.4294 0.373515 10.4294 0.342907 10.2987C0.336645 10.2078 0.333426 10.12 0.33353 10.0292C0.333397 10.0033 0.333263 9.97751 0.333125 9.9509C0.332946 9.89641 0.33293 9.84192 0.333066 9.78743C0.333164 9.70453 0.332433 9.62167 0.331643 9.53878C0.331572 9.48566 0.33155 9.43254 0.331582 9.37942C0.331295 9.35486 0.331007 9.33031 0.330711 9.30501C0.332041 9.14452 0.352923 9.022 0.436429 8.88103C0.654648 8.75502 0.654648 8.75502 1.18461 8.75502C1.18461 8.02731 1.18461 7.29959 1.18461 6.54983C1.15375 6.56022 1.12288 6.57062 1.09109 6.58133C0.892336 6.59835 0.756286 6.573 0.5923 6.45532C0.431131 6.27566 0.31133 6.05727 0.190933 5.84889C0.172448 5.81864 0.153962 5.78838 0.134917 5.75721C0.00839263 5.53715 -0.0423122 5.3549 -8.82242e-06 5.1007C0.0556163 4.92329 0.176161 4.82816 0.331216 4.73842C0.352603 4.72547 0.373989 4.71252 0.396023 4.69918C0.471466 4.65383 0.547413 4.60944 0.623474 4.56515C0.652865 4.54793 0.682255 4.5307 0.712537 4.51295C0.880881 4.4143 1.04954 4.31622 1.21834 4.21838C1.43168 4.09441 1.64339 3.9678 1.85485 3.84059C2.1609 3.65662 2.46842 3.47547 2.77715 3.29613C3.0329 3.14745 3.28772 2.99725 3.54215 2.84629C3.57074 2.82933 3.57074 2.82933 3.5999 2.81202C3.63814 2.78934 3.67638 2.76665 3.71461 2.74396C3.74269 2.7273 3.74269 2.7273 3.77133 2.71031C3.78992 2.69928 3.80851 2.68824 3.82766 2.67688C4.00636 2.57088 4.18534 2.46538 4.36437 2.35996C4.64 2.19764 4.91531 2.03478 5.19049 1.87167C5.49558 1.69082 5.80089 1.51035 6.10653 1.33044C6.27807 1.22941 6.44943 1.12807 6.6206 1.02639C6.84511 0.893012 7.06981 0.759961 7.29474 0.62731C7.32311 0.610564 7.35148 0.593818 7.38071 0.576564C7.45062 0.535451 7.5207 0.49466 7.5909 0.454045C7.6099 0.442844 7.62891 0.431644 7.64849 0.420104C7.95204 0.246315 8.20143 0.34272 8.4852 0.511143ZM7.7878 0.95009C7.76193 0.965803 7.73605 0.981516 7.7094 0.997706C7.68122 1.01517 7.65305 1.03263 7.62402 1.05063C7.56197 1.08839 7.4999 1.12613 7.43783 1.16384C7.40463 1.18411 7.37143 1.20437 7.33722 1.22525C7.17286 1.325 7.00739 1.42282 6.84189 1.52062C6.7838 1.55495 6.72573 1.58932 6.66767 1.6237C6.39981 1.7823 6.13167 1.94044 5.86345 2.09842C5.62139 2.24104 5.37959 2.38409 5.13788 2.52732C5.11901 2.5385 5.10014 2.54968 5.0807 2.5612C4.94583 2.64112 4.81097 2.72106 4.67611 2.801C4.09571 3.14505 3.51493 3.48841 2.93356 3.83078C2.52517 4.07129 2.11714 4.31241 1.70945 4.55413C1.52353 4.66434 1.33751 4.77439 1.15124 4.884C1.11674 4.9043 1.08224 4.92461 1.0467 4.94553C0.981728 4.98374 0.916742 5.02193 0.851739 5.06009C0.822947 5.07703 0.794154 5.09396 0.764488 5.11141C0.739388 5.12615 0.714287 5.14088 0.688425 5.15607C0.634612 5.1885 0.582084 5.22309 0.529952 5.25821C0.579581 5.44251 0.672024 5.59546 0.767654 5.75832C0.783729 5.78602 0.799803 5.81371 0.816364 5.84225C0.855826 5.91019 0.895446 5.97803 0.935216 6.04578C1.04789 6.00293 1.14988 5.95192 1.25402 5.89098C1.28575 5.87246 1.31747 5.85394 1.35016 5.83486C1.38426 5.8148 1.41836 5.79474 1.45349 5.77407C1.48963 5.7529 1.52578 5.73174 1.56193 5.71058C1.85186 5.54058 2.14015 5.36779 2.42826 5.19463C2.69925 5.03197 2.97186 4.8723 3.24511 4.71355C3.49745 4.56683 3.74895 4.41873 4.00002 4.26982C4.01878 4.25869 4.03753 4.24757 4.05685 4.23611C4.15215 4.17958 4.24742 4.12304 4.3427 4.06648C4.53495 3.95235 4.72731 3.83838 4.91966 3.72442C4.9385 3.71326 4.95733 3.7021 4.97674 3.6906C5.38426 3.44917 5.79231 3.20868 6.20045 2.96833C6.26115 2.93258 6.32185 2.89681 6.38254 2.86104C6.4436 2.82508 6.50471 2.7892 6.56586 2.75339C6.72296 2.6612 6.87931 2.56796 7.03439 2.47234C7.11542 2.42245 7.1967 2.37301 7.278 2.32359C7.31722 2.29959 7.35632 2.27538 7.39528 2.25095C7.85061 1.96567 7.85061 1.96567 8.13805 2.0271C8.31261 2.08555 8.46923 2.18911 8.62549 2.28514C8.6864 2.32204 8.74733 2.35892 8.80827 2.39577C8.85689 2.42528 8.85689 2.42528 8.9065 2.45538C9.07031 2.55431 9.23499 2.65173 9.3997 2.74913C9.45783 2.78351 9.51595 2.81792 9.57407 2.85233C9.84181 3.01085 10.1098 3.16892 10.3779 3.32682C10.6428 3.48285 10.9072 3.63953 11.1717 3.79627C11.4275 3.9479 11.6835 4.09923 11.9397 4.25013C12.2347 4.42387 12.5294 4.59827 12.8239 4.77286C13.1094 4.94207 13.3951 5.11092 13.6811 5.27917C13.8361 5.37041 13.9909 5.46198 14.1454 5.55413C14.2283 5.60357 14.3112 5.65293 14.3941 5.7023C14.4344 5.7263 14.4746 5.75033 14.5148 5.77441C14.5709 5.80803 14.6271 5.84152 14.6834 5.87498C14.7157 5.89428 14.748 5.91358 14.7812 5.93346C14.8615 5.97801 14.9402 6.01374 15.0259 6.04578C15.0937 5.92646 15.1612 5.80697 15.2286 5.68744C15.2479 5.65341 15.2672 5.61938 15.2871 5.58432C15.3054 5.55183 15.3237 5.51934 15.3425 5.48587C15.368 5.44083 15.368 5.44083 15.394 5.39489C15.4359 5.32565 15.4359 5.32565 15.4312 5.25821C15.3566 5.20512 15.3566 5.20512 15.2597 5.15042C15.2417 5.13982 15.2237 5.12923 15.2051 5.11832C15.1455 5.08335 15.0857 5.04871 15.0259 5.01407C14.9843 4.98973 14.9427 4.96536 14.9011 4.94097C14.8166 4.89145 14.732 4.84205 14.6473 4.79275C14.4822 4.69654 14.3176 4.59933 14.1531 4.50215C14.0921 4.46625 14.0312 4.43036 13.9703 4.39447C13.7589 4.26987 13.5478 4.14485 13.3367 4.01976C13.3178 4.00858 13.2989 3.9974 13.2795 3.98588C13.1253 3.89448 12.971 3.80305 12.8168 3.71163C12.6822 3.63188 12.5477 3.55213 12.4131 3.4724C12.3848 3.45562 12.3848 3.45562 12.3559 3.4385C12.1031 3.28867 11.85 3.13918 11.5968 2.99002C11.3244 2.82961 11.0523 2.66877 10.7804 2.50763C10.7615 2.49645 10.7427 2.48527 10.7232 2.47375C10.569 2.38234 10.4147 2.29092 10.2605 2.1995C10.145 2.13103 10.0295 2.06256 9.91397 1.99411C9.87596 1.97158 9.83794 1.94905 9.79993 1.92652C9.60458 1.81074 9.40915 1.69511 9.21341 1.58002C9.18157 1.56129 9.14972 1.54257 9.11691 1.52327C9.05517 1.48697 8.9934 1.45071 8.93162 1.41447C8.78205 1.32651 8.63335 1.23741 8.48581 1.146C8.45712 1.12828 8.42843 1.11057 8.39887 1.09232C8.34491 1.05889 8.29109 1.02522 8.23745 0.991276C8.20168 0.969122 8.20168 0.969122 8.16518 0.946521C8.14448 0.933491 8.12377 0.920461 8.10244 0.907035C7.97828 0.849244 7.8957 0.883647 7.7878 0.95009ZM7.76869 2.62995C7.7392 2.64757 7.70972 2.66518 7.67934 2.68333C7.64758 2.70267 7.61582 2.72201 7.5831 2.74193C7.51487 2.78284 7.44664 2.82373 7.3784 2.86462C7.32619 2.89609 7.32619 2.89609 7.27293 2.9282C7.1178 3.02141 6.96173 3.11298 6.8057 3.20463C6.50743 3.38033 6.20957 3.55672 5.91178 3.73324C5.62585 3.90273 5.33965 4.07174 5.05325 4.24041C4.8078 4.38501 4.56267 4.53015 4.31761 4.67541C4.04244 4.83853 3.76712 5.00138 3.4915 5.16371C2.55234 5.63626 2.55234 5.63627 1.71457 6.2348C1.71457 7.06647 1.71457 7.89815 1.71457 8.75502C5.85013 8.75502 9.98569 8.75502 14.2466 8.75502C14.2466 7.92335 14.2466 7.09168 14.2466 6.2348C14.0197 6.08123 14.0197 6.08123 13.7876 5.93946C13.7558 5.92103 13.724 5.9026 13.6912 5.88361C13.6578 5.86436 13.6244 5.8451 13.59 5.82526C13.5358 5.79386 13.4816 5.76245 13.4274 5.73103C13.3906 5.70965 13.3537 5.68829 13.3169 5.66693C13.1399 5.56433 12.9635 5.46066 12.7872 5.35666C12.7571 5.33885 12.7269 5.32105 12.6958 5.3027C12.4101 5.13402 12.1247 4.96483 11.8392 4.79566C11.6027 4.65549 11.366 4.51565 11.1292 4.37614C10.8568 4.21573 10.5847 4.05489 10.3128 3.89375C10.2939 3.88257 10.275 3.87139 10.2556 3.85987C10.1014 3.76847 9.94713 3.67704 9.7929 3.58562C9.65836 3.50587 9.52381 3.42612 9.38925 3.34639C9.37062 3.33535 9.35198 3.32431 9.33279 3.31293C9.03296 3.13527 8.73285 2.95809 8.4325 2.78135C8.40392 2.76452 8.37534 2.7477 8.34589 2.73037C8.30873 2.7085 8.30873 2.7085 8.27082 2.6862C8.21954 2.65579 8.16915 2.6238 8.11946 2.5908C7.9799 2.51454 7.89478 2.55375 7.76869 2.62995ZM0.872867 9.29057C0.872867 9.55047 0.872867 9.81036 0.872867 10.0781C5.56395 10.0781 10.255 10.0781 15.0883 10.0781C15.0883 9.81824 15.0883 9.55834 15.0883 9.29057C10.3972 9.29057 5.70611 9.29057 0.872867 9.29057ZM1.71457 10.6137C1.71457 11.882 1.71457 13.1503 1.71457 14.457C2.30095 14.457 2.88734 14.457 3.4915 14.457C3.4915 13.1887 3.4915 11.9204 3.4915 10.6137C2.90511 10.6137 2.31872 10.6137 1.71457 10.6137ZM4.02146 10.6137C4.02146 11.882 4.02146 13.1503 4.02146 14.457C4.85474 14.457 5.68803 14.457 6.54656 14.457C6.54656 13.1887 6.54656 11.9204 6.54656 10.6137C5.71328 10.6137 4.87999 10.6137 4.02146 10.6137ZM7.07652 10.6137C7.07652 11.882 7.07652 13.1503 7.07652 14.457C7.67319 14.457 8.26987 14.457 8.88462 14.457C8.88462 13.1887 8.88462 11.9204 8.88462 10.6137C8.28795 10.6137 7.69128 10.6137 7.07652 10.6137ZM9.41458 10.6137C9.41458 11.882 9.41458 13.1503 9.41458 14.457C10.2479 14.457 11.0812 14.457 11.9397 14.457C11.9397 13.1887 11.9397 11.9204 11.9397 10.6137C11.1064 10.6137 10.2731 10.6137 9.41458 10.6137ZM12.4696 10.6137C12.4696 11.882 12.4696 13.1503 12.4696 14.457C13.056 14.457 13.6424 14.457 14.2466 14.457C14.2466 13.1887 14.2466 11.9204 14.2466 10.6137C13.6602 10.6137 13.0738 10.6137 12.4696 10.6137ZM0.872867 14.9926C0.872867 15.2525 0.875 15.2321 0.875 15.4999C5.56608 15.4999 10.255 15.5319 15.0883 15.5319C15.0883 15.272 15.0883 15.2603 15.0883 14.9926C10.3972 14.9926 5.70611 14.9926 0.872867 14.9926Z" fill="#005E8B"/>
<path d="M9.42139 3.90478C9.44738 3.92593 9.47336 3.94708 9.50013 3.96887C9.5245 3.98776 9.54887 4.00666 9.57398 4.02612C9.99048 4.36781 10.2452 4.88369 10.3439 5.40637C10.3565 5.53498 10.3588 5.66196 10.3576 5.79114C10.3573 5.82527 10.357 5.85941 10.3567 5.89457C10.3424 6.56302 10.053 7.1223 9.57435 7.58215C9.04766 8.03926 8.40442 8.20385 7.71888 8.15637C7.07021 8.07208 6.50891 7.74146 6.10364 7.23059C5.79463 6.80071 5.63743 6.33121 5.64271 5.8009C5.64299 5.76666 5.64327 5.73242 5.64356 5.69715C5.65718 5.05907 5.94108 4.48346 6.39844 4.04236C7.23536 3.30213 8.52969 3.21153 9.42139 3.90478ZM6.59376 4.6322C6.24908 5.05355 6.14733 5.51449 6.17968 6.04863C6.22994 6.5322 6.51343 6.94072 6.87513 7.25012C7.30231 7.56635 7.80058 7.67838 8.32337 7.61181C8.73259 7.53087 9.05388 7.32559 9.34388 7.03137C9.3618 7.01377 9.37973 6.99616 9.3982 6.97803C9.54555 6.82154 9.63305 6.63283 9.71888 6.43762C9.73501 6.40215 9.73501 6.40215 9.75147 6.36596C9.89956 5.97315 9.84641 5.4719 9.68763 5.09387C9.6774 5.06716 9.66716 5.04045 9.65662 5.01294C9.47639 4.59656 9.09452 4.27953 8.68763 4.09973C7.91561 3.80037 7.14001 4.02525 6.59376 4.6322Z" fill="#005E8B"/>
<path d="M8.15591 4.28141C8.2511 4.35756 8.25751 4.43916 8.27115 4.55484C8.27479 4.59908 8.27817 4.64335 8.28091 4.68766C8.30734 4.6941 8.33377 4.70055 8.36099 4.70719C8.49557 4.76102 8.59577 4.82403 8.68716 4.93766C8.72519 5.03197 8.72346 5.08164 8.71841 5.18766C8.67154 5.27945 8.67154 5.27945 8.59341 5.34391C8.4673 5.38059 8.40348 5.38803 8.28287 5.33414C8.2616 5.31674 8.24033 5.29934 8.21841 5.28141C8.21841 5.26078 8.21841 5.24016 8.21841 5.21891C8.17352 5.21637 8.12859 5.21455 8.08365 5.21305C8.05863 5.21196 8.03362 5.21087 8.00784 5.20975C7.93573 5.21394 7.93573 5.21394 7.87918 5.25638C7.83457 5.31351 7.83457 5.31351 7.85318 5.39664C7.86027 5.42049 7.86736 5.44434 7.87466 5.46891C7.9056 5.47539 7.93654 5.48188 7.96841 5.48856C8.22156 5.54592 8.42381 5.60191 8.59341 5.81266C8.70254 5.99219 8.74507 6.16487 8.71841 6.37516C8.66343 6.55446 8.58509 6.6936 8.43716 6.81266C8.34927 6.85367 8.34927 6.85367 8.28091 6.87516C8.2822 6.90803 8.28349 6.9409 8.28482 6.97477C8.28108 7.08873 8.27529 7.15265 8.21841 7.25016C8.12225 7.33258 8.07655 7.3444 7.94888 7.34C7.84221 7.31234 7.81343 7.30362 7.74966 7.21891C7.73367 7.14139 7.73367 7.14139 7.72818 7.0568C7.72613 7.02864 7.72407 7.00048 7.72195 6.97147C7.72079 6.95 7.71962 6.92853 7.71841 6.90641C7.68385 6.902 7.68385 6.902 7.64859 6.8975C7.54946 6.87187 7.50424 6.83648 7.42935 6.76773C7.40792 6.74844 7.38649 6.72914 7.36441 6.70926C7.29508 6.63912 7.28213 6.60488 7.27115 6.50602C7.28372 6.37783 7.30653 6.33257 7.40591 6.25016C7.50325 6.22927 7.58969 6.23027 7.68716 6.25016C7.73974 6.29119 7.79185 6.33285 7.84341 6.37516C7.93409 6.39192 7.99972 6.38591 8.09341 6.37516C8.16635 6.28825 8.16635 6.28825 8.1442 6.19742C8.13453 6.16165 8.13453 6.16165 8.12466 6.12516C8.09751 6.11984 8.07036 6.11452 8.04239 6.10904C7.73033 6.04342 7.52958 5.9513 7.34341 5.68766C7.26073 5.51476 7.25138 5.3305 7.3002 5.14603C7.37865 4.94229 7.52196 4.78588 7.71841 4.68766C7.72948 4.62533 7.72948 4.62533 7.73209 4.55289C7.74263 4.43649 7.75411 4.36384 7.84341 4.28141C7.962 4.24188 8.03478 4.25328 8.15591 4.28141Z" fill="#005E8B"/>
<path d="M13.3125 11.2939C13.4427 11.3 13.5316 11.3054 13.625 11.4062C13.658 11.5052 13.6606 11.5763 13.6613 11.6803C13.6616 11.7173 13.6619 11.7543 13.6622 11.7925C13.6623 11.8325 13.6625 11.8726 13.6626 11.9138C13.6628 11.9549 13.663 11.996 13.6632 12.0384C13.6635 12.1255 13.6637 12.2125 13.6638 12.2996C13.6639 12.4109 13.6647 12.5223 13.6656 12.6336C13.6663 12.74 13.6664 12.8465 13.6665 12.9529C13.6669 12.9928 13.6673 13.0327 13.6677 13.0738C13.6676 13.1111 13.6675 13.1483 13.6674 13.1866C13.6675 13.2193 13.6676 13.252 13.6678 13.2857C13.6545 13.389 13.6238 13.4477 13.5625 13.5312C13.4644 13.5803 13.3894 13.5735 13.2813 13.5625C13.1978 13.5111 13.1692 13.4905 13.125 13.4062C13.1014 13.2619 13.1039 13.1187 13.1054 12.9727C13.1053 12.9298 13.1053 12.887 13.1051 12.8441C13.105 12.7545 13.1055 12.6649 13.1064 12.5753C13.1074 12.4606 13.1072 12.346 13.1067 12.2313C13.1063 12.1429 13.1066 12.0545 13.1071 11.9661C13.1073 11.9033 13.1071 11.8406 13.1068 11.7778C13.1073 11.7396 13.1078 11.7013 13.1083 11.6619C13.1085 11.6283 13.1087 11.5947 13.1089 11.56C13.1307 11.4365 13.1865 11.3314 13.3125 11.2939Z" fill="#005E8B"/>
<path d="M2.74977 11.3126C2.86219 11.4277 2.89052 11.5023 2.89144 11.6619C2.89193 11.7002 2.89243 11.7385 2.89294 11.7779C2.8927 11.8396 2.8927 11.8396 2.89247 11.9024C2.89263 11.9453 2.89283 11.9881 2.89305 12.0309C2.89338 12.1206 2.89324 12.2102 2.89278 12.2998C2.89224 12.4145 2.89298 12.5291 2.89407 12.6437C2.89476 12.7322 2.89472 12.8206 2.89446 12.909C2.89442 12.9717 2.89504 13.0345 2.89567 13.0972C2.89244 13.4136 2.89244 13.4136 2.80237 13.5105C2.69182 13.5792 2.62766 13.5835 2.49977 13.5626C2.42586 13.5042 2.38538 13.4588 2.34352 13.3751C2.34019 13.3162 2.33886 13.2573 2.33848 13.1983C2.33818 13.1613 2.33788 13.1243 2.33757 13.0861C2.33744 13.0459 2.3373 13.0057 2.33717 12.9643C2.33699 12.9232 2.33681 12.882 2.33663 12.8396C2.3363 12.7523 2.33612 12.6651 2.33601 12.5779C2.33584 12.4663 2.33509 12.3547 2.3342 12.2431C2.33347 12.1365 2.33341 12.0299 2.33326 11.9233C2.33288 11.8833 2.33249 11.8433 2.33209 11.8021C2.33219 11.7647 2.33228 11.7274 2.33238 11.6889C2.33226 11.6562 2.33215 11.6234 2.33203 11.5896C2.34529 11.4862 2.37593 11.4274 2.43727 11.3438C2.5352 11.2949 2.6445 11.286 2.74977 11.3126Z" fill="#005E8B"/>
<path d="M8.06595 11.3004C8.15876 11.3195 8.19735 11.3613 8.2504 11.4377C8.28311 11.5375 8.28578 11.6304 8.28619 11.735C8.28639 11.7695 8.28659 11.8041 8.28679 11.8396C8.28683 11.8768 8.28686 11.9139 8.2869 11.9522C8.287 11.9905 8.28711 12.0288 8.28722 12.0682C8.28737 12.1492 8.28745 12.2302 8.28744 12.3112C8.28751 12.4351 8.28808 12.559 8.28867 12.683C8.28876 12.7616 8.28882 12.8403 8.28885 12.919C8.28908 12.9561 8.2893 12.9931 8.28953 13.0313C8.28944 13.066 8.28934 13.1006 8.28924 13.1363C8.28929 13.1666 8.28933 13.197 8.28938 13.2283C8.27833 13.3489 8.24907 13.4379 8.16446 13.5255C8.06981 13.5755 8.01246 13.5778 7.90665 13.5627C7.82378 13.5115 7.82378 13.5115 7.7504 13.4377C7.73077 13.3475 7.73077 13.3475 7.73068 13.2419C7.73029 13.2022 7.7299 13.1626 7.72949 13.1218C7.72988 13.0786 7.73029 13.0355 7.73075 12.9923C7.73072 12.948 7.73064 12.9036 7.73052 12.8593C7.73043 12.7664 7.73089 12.6735 7.73175 12.5806C7.73281 12.4616 7.73262 12.3427 7.73204 12.2237C7.73171 12.1322 7.73199 12.0406 7.73246 11.949C7.73262 11.9052 7.7326 11.8613 7.73241 11.8174C7.73224 11.7561 7.73296 11.6948 7.73373 11.6335C7.73392 11.5986 7.73412 11.5637 7.73432 11.5278C7.76865 11.3354 7.8899 11.2913 8.06595 11.3004Z" fill="#005E8B"/>
</g>
<defs>
<clip-path id="clip0_28317_4170">
<rect width="16" height="16" fill="white"/>
</clip-path>
</defs>
</svg>
