<svg width="80" height="80" viewBox="0 0 80 80" fill="none" xmlns="http://www.w3.org/2000/svg">
<path fillRule="evenodd" clipRule="evenodd" d="M10.0001 12.5C9.53984 12.5 9.16675 12.8731 9.16675 13.3333V56.6667C9.16675 57.1269 9.53982 57.5 10.0001 57.5H43.3334C44.7141 57.5 45.8334 58.6193 45.8334 60C45.8334 61.3807 44.7141 62.5 43.3334 62.5H10.0001C6.77844 62.5 4.16675 59.8884 4.16675 56.6667V13.3333C4.16675 10.1117 6.77842 7.5 10.0001 7.5H70.0001C73.2218 7.5 75.8334 10.1117 75.8334 13.3333V56.6667C75.8334 59.8884 73.2218 62.5 70.0001 62.5H56.6667C55.286 62.5 54.1667 61.3807 54.1667 60C54.1667 58.6193 55.286 57.5 56.6667 57.5H70.0001C70.4604 57.5 70.8334 57.127 70.8334 56.6667V13.3333C70.8334 12.8731 70.4603 12.5 70.0001 12.5H10.0001Z" fill="white"/>
<path fillRule="evenodd" clipRule="evenodd" d="M17.5001 23.3333C17.5001 21.9526 18.6194 20.8333 20.0001 20.8333H60.0001C61.3808 20.8333 62.5001 21.9526 62.5001 23.3333C62.5001 24.714 61.3808 25.8333 60.0001 25.8333H20.0001C18.6194 25.8333 17.5001 24.714 17.5001 23.3333Z" fill="white"/>
<path fillRule="evenodd" clipRule="evenodd" d="M17.5001 35C17.5001 33.6193 18.6194 32.5 20.0001 32.5H30.0001C31.3808 32.5 32.5001 33.6193 32.5001 35C32.5001 36.3807 31.3808 37.5 30.0001 37.5H20.0001C18.6194 37.5 17.5001 36.3807 17.5001 35Z" fill="white"/>
<path fillRule="evenodd" clipRule="evenodd" d="M17.5001 46.6667C17.5001 45.286 18.6194 44.1667 20.0001 44.1667H26.6667C28.0475 44.1667 29.1667 45.286 29.1667 46.6667C29.1667 48.0474 28.0475 49.1667 26.6667 49.1667H20.0001C18.6194 49.1667 17.5001 48.0474 17.5001 46.6667Z" fill="white"/>
<path fillRule="evenodd" clipRule="evenodd" d="M37.5001 45C37.5001 38.0965 43.0965 32.5 50.0001 32.5C56.9036 32.5 62.5001 38.0965 62.5001 45C62.5001 51.9035 56.9036 57.5 50.0001 57.5C43.0965 57.5 37.5001 51.9035 37.5001 45ZM50.0001 37.5C45.858 37.5 42.5001 40.8579 42.5001 45C42.5001 49.1421 45.858 52.5 50.0001 52.5C54.1422 52.5 57.5001 49.1421 57.5001 45C57.5001 40.8579 54.1422 37.5 50.0001 37.5Z" fill="white"/>
<path fillRule="evenodd" clipRule="evenodd" d="M57.4547 50.0812C58.4769 50.4207 59.1667 51.3767 59.1667 52.4538V70.0001C59.1667 70.8665 58.7181 71.6712 57.9811 72.1267C57.244 72.5822 56.3237 72.6237 55.5487 72.2362L50.0001 69.4619L44.4514 72.2362C43.6765 72.6237 42.7561 72.5822 42.0191 72.1267C41.282 71.6712 40.8334 70.8665 40.8334 70.0001V52.5001C40.8334 51.4271 41.5182 50.4737 42.535 50.131C43.5325 49.7949 44.6313 50.1199 45.2858 50.9387C45.2985 50.9546 45.3111 50.9706 45.3234 50.9869M45.8334 56.8859V65.955L48.882 64.4307C49.5859 64.0788 50.4143 64.0788 51.1181 64.4307L54.1667 65.955V56.8767C53.011 57.2501 51.6271 57.5 50.0001 57.5C48.3724 57.5 46.9887 57.2538 45.8334 56.8859ZM54.6652 50.9559L54.6702 50.9492L54.6763 50.9411L54.6868 50.9275L54.7006 50.91C54.7069 50.9028 54.7064 50.9029 54.7006 50.91C55.3503 50.0816 56.4515 49.748 57.4547 50.0812M54.7006 50.91C54.6866 50.9259 54.6454 50.9711 54.5784 51.0344L54.7006 50.91ZM54.5784 51.0344C54.4443 51.161 54.2033 51.3638 53.8431 51.5779L54.5784 51.0344ZM53.8431 51.5779C53.1402 51.9957 51.9123 52.5 50.0001 52.5L53.8431 51.5779ZM50.0001 52.5C48.0785 52.5 46.8445 52.0022 46.1397 51.5909L50.0001 52.5ZM46.1397 51.5909C45.7789 51.3803 45.5382 51.1813 45.405 51.0578L46.1397 51.5909ZM45.405 51.0578C45.3385 50.9961 45.2992 50.9536 45.2858 50.9387L45.405 51.0578Z" fill="white"/>
</svg>
