<svg width="32" height="32" viewBox="0 0 32 32" fill="none" xmlns="http://www.w3.org/2000/svg">
<rect x="0.433333" y="0.433333" width="31.1333" height="31.1333" rx="2.23333" stroke="#FCCD6E" strokeWidth="0.866667"/>
<path fill-rule="evenodd" clipRule="evenodd" d="M9.55545 12.7477C9.55545 9.25113 12.4564 6.44464 15.9999 6.44464C19.5434 6.44464 22.4443 9.25113 22.4443 12.7477C22.4443 15.2049 20.8362 17.4047 19.3674 18.9195C18.6181 19.6922 17.8712 20.3212 17.3125 20.7567C17.0326 20.9749 16.7986 21.1455 16.6332 21.2625C16.5505 21.3211 16.4849 21.3662 16.4392 21.3972C16.4349 21.4001 16.4308 21.4029 16.4268 21.4056C16.4098 21.4171 16.3961 21.4263 16.3859 21.4331L16.3711 21.4429L16.3668 21.4457L16.3646 21.4471C16.143 21.592 15.8568 21.592 15.6352 21.4471L15.9999 20.8891C15.6352 21.4471 15.6343 21.4466 15.6343 21.4466L15.633 21.4457L15.6287 21.4429L15.6139 21.4331C15.6013 21.4247 15.5835 21.4127 15.5606 21.3972C15.5149 21.3662 15.4493 21.3211 15.3666 21.2625C15.2012 21.1455 14.9672 20.9749 14.6873 20.7567C14.1286 20.3212 13.3817 19.6922 12.6324 18.9195C11.1636 17.4047 9.55545 15.2049 9.55545 12.7477ZM18.8888 12.8891C18.8888 11.2936 17.5954 10.0002 15.9999 10.0002C14.4044 10.0002 13.111 11.2936 13.111 12.8891C13.111 14.4846 14.4044 15.778 15.9999 15.778C17.5954 15.778 18.8888 14.4846 18.8888 12.8891Z" fill="#FCCD6E"/>
<path d="M10.353 19.7008C10.4588 20.0534 10.2587 20.4251 9.90606 20.5309C9.13644 20.7618 8.56219 21.0235 8.19522 21.2838C7.81093 21.5563 7.77767 21.733 7.77767 21.778C7.77767 21.8229 7.81094 21.9996 8.19522 22.2722C8.56219 22.5324 9.13644 22.7941 9.90606 23.025C11.4368 23.4842 13.5915 23.778 15.9999 23.778C18.4083 23.778 20.563 23.4842 22.0937 23.025C22.8633 22.7941 23.4376 22.5324 23.8046 22.2722C24.1888 21.9996 24.2221 21.8229 24.2221 21.778C24.2221 21.733 24.1889 21.5563 23.8046 21.2838C23.4376 21.0235 22.8633 20.7618 22.0937 20.5309C21.741 20.4251 21.5409 20.0534 21.6467 19.7008C21.7525 19.3481 22.1242 19.148 22.4768 19.2538C23.3158 19.5055 24.0433 19.8184 24.5759 20.1962C25.0912 20.5617 25.5554 21.0866 25.5554 21.778C25.5554 22.4694 25.0913 22.9942 24.5759 23.3597C24.0433 23.7375 23.3158 24.0504 22.4769 24.3021C20.7905 24.808 18.5007 25.1113 15.9999 25.1113C13.4991 25.1113 11.2093 24.808 9.52293 24.3021C8.68398 24.0504 7.95649 23.7375 7.42385 23.3597C6.90853 22.9942 6.44434 22.4694 6.44434 21.778C6.44434 21.0866 6.90854 20.5617 7.42385 20.1962C7.95649 19.8184 8.68398 19.5055 9.52293 19.2538C9.87559 19.148 10.2472 19.3481 10.353 19.7008Z" fill="#FCCD6E"/>
</svg>
